<svg width="16" height="15" viewBox="0 0 16 15" fill="none" xmlns="http://www.w3.org/2000/svg">
<path d="M7.99993 3.42847C7.54527 3.42847 7.10924 3.60908 6.78775 3.93057C6.46626 4.25206 6.28564 4.6881 6.28564 5.14275C6.28564 5.59741 6.46626 6.03344 6.78775 6.35494C7.10924 6.67643 7.54527 6.85704 7.99993 6.85704C8.45459 6.85704 8.89062 6.67643 9.21211 6.35494C9.5336 6.03344 9.71422 5.59741 9.71422 5.14275C9.71422 4.6881 9.5336 4.25206 9.21211 3.93057C8.89062 3.60908 8.45459 3.42847 7.99993 3.42847V3.42847Z" fill="white"/>
<path fill-rule="evenodd" clip-rule="evenodd" d="M0 1.42857C0 0.639238 0.64 0 1.42857 0H14.5714C15.36 0 16 0.64 16 1.42857V8.85714C16 9.64648 15.36 10.2857 14.5714 10.2857H1.42857C1.24097 10.2857 1.0552 10.2488 0.881881 10.177C0.708559 10.1052 0.551074 9.99995 0.418419 9.8673C0.285764 9.73464 0.180536 9.57716 0.108743 9.40383C0.0369511 9.23051 0 9.04475 0 8.85714V1.42857ZM5.14286 5.14286C5.14286 4.3851 5.44388 3.65837 5.9797 3.12255C6.51551 2.58673 7.24224 2.28571 8 2.28571C8.75776 2.28571 9.48449 2.58673 10.0203 3.12255C10.5561 3.65837 10.8571 4.3851 10.8571 5.14286C10.8571 5.90062 10.5561 6.62734 10.0203 7.16316C9.48449 7.69898 8.75776 8 8 8C7.24224 8 6.51551 7.69898 5.9797 7.16316C5.44388 6.62734 5.14286 5.90062 5.14286 5.14286ZM13.1429 4.57143C12.9913 4.57143 12.846 4.63163 12.7388 4.7388C12.6316 4.84596 12.5714 4.9913 12.5714 5.14286V5.14895C12.5714 5.46438 12.8274 5.72038 13.1429 5.72038H13.149C13.3005 5.72038 13.4458 5.66018 13.553 5.55301C13.6602 5.44585 13.7204 5.30051 13.7204 5.14895V5.14286C13.7204 4.9913 13.6602 4.84596 13.553 4.7388C13.4458 4.63163 13.3005 4.57143 13.149 4.57143H13.1429ZM2.28571 5.14286C2.28571 4.9913 2.34592 4.84596 2.45308 4.7388C2.56025 4.63163 2.70559 4.57143 2.85714 4.57143H2.86324C3.01479 4.57143 3.16014 4.63163 3.2673 4.7388C3.37446 4.84596 3.43467 4.9913 3.43467 5.14286V5.14895C3.43467 5.30051 3.37446 5.44585 3.2673 5.55301C3.16014 5.66018 3.01479 5.72038 2.86324 5.72038H2.85714C2.70559 5.72038 2.56025 5.66018 2.45308 5.55301C2.34592 5.44585 2.28571 5.30051 2.28571 5.14895V5.14286Z" fill="white"/>
<path d="M0.571429 11.4285C0.419876 11.4285 0.274531 11.4887 0.167368 11.5958C0.0602039 11.703 0 11.8483 0 11.9999C0 12.1514 0.0602039 12.2968 0.167368 12.404C0.274531 12.5111 0.419876 12.5713 0.571429 12.5713C4.68571 12.5713 8.67048 13.1214 12.4571 14.1523C13.3638 14.3991 14.2857 13.7271 14.2857 12.7656V11.9999C14.2857 11.8483 14.2255 11.703 14.1183 11.5958C14.0112 11.4887 13.8658 11.4285 13.7143 11.4285H0.571429Z" fill="white"/>
</svg>
