<svg width="16" height="15" viewBox="0 0 16 15" fill="none" xmlns="http://www.w3.org/2000/svg">
<path d="M0.0188718 2.15385C0.692802 1.55777 1.56183 1.22937 2.46154 1.23077H13.5385C14.4747 1.23077 15.3296 1.57949 15.9811 2.15385C15.9062 1.55892 15.6166 1.01182 15.1669 0.615241C14.7171 0.218665 14.1381 -0.000105849 13.5385 3.842e-08H2.46154C1.86191 -0.000105849 1.28287 0.218665 0.833112 0.615241C0.383357 1.01182 0.0938251 1.55892 0.0188718 2.15385ZM0.0188718 4.61538C0.692802 4.01931 1.56183 3.69091 2.46154 3.69231H13.5385C14.4747 3.69231 15.3296 4.04103 15.9811 4.61538C15.9062 4.02046 15.6166 3.47336 15.1669 3.07678C14.7171 2.6802 14.1381 2.46143 13.5385 2.46154H2.46154C1.86191 2.46143 1.28287 2.6802 0.833112 3.07678C0.383357 3.47336 0.0938251 4.02046 0.0188718 4.61538ZM2.46154 4.92308C1.8087 4.92308 1.1826 5.18242 0.720968 5.64404C0.25934 6.10567 0 6.73177 0 7.38462V12.3077C0 12.9605 0.25934 13.5866 0.720968 14.0483C1.1826 14.5099 1.8087 14.7692 2.46154 14.7692H13.5385C14.1913 14.7692 14.8174 14.5099 15.279 14.0483C15.7407 13.5866 16 12.9605 16 12.3077V7.38462C16 6.73177 15.7407 6.10567 15.279 5.64404C14.8174 5.18242 14.1913 4.92308 13.5385 4.92308H10.4615C10.2983 4.92308 10.1418 4.98791 10.0264 5.10332C9.91099 5.21873 9.84615 5.37525 9.84615 5.53846C9.84615 6.02809 9.65165 6.49767 9.30543 6.84389C8.95921 7.19011 8.48963 7.38462 8 7.38462C7.51037 7.38462 7.04079 7.19011 6.69457 6.84389C6.34835 6.49767 6.15385 6.02809 6.15385 5.53846C6.15385 5.37525 6.08901 5.21873 5.9736 5.10332C5.8582 4.98791 5.70167 4.92308 5.53846 4.92308H2.46154Z" fill="white"/>
</svg>
