<svg width="37" height="37" viewBox="0 0 37 37" fill="none" xmlns="http://www.w3.org/2000/svg">
<circle cx="18.5" cy="18.5" r="18.5" fill="#868686" fill-opacity="0.19"/>
<g clip-path="url(#clip0_0_1)">
<path d="M17.8147 14.2909C17.1917 14.2909 16.5942 14.5384 16.1536 14.9789C15.713 15.4195 15.4655 16.017 15.4655 16.6401C15.4655 17.2631 15.713 17.8606 16.1536 18.3012C16.5942 18.7418 17.1917 18.9893 17.8147 18.9893C18.4378 18.9893 19.0353 18.7418 19.4759 18.3012C19.9164 17.8606 20.1639 17.2631 20.1639 16.6401C20.1639 16.017 19.9164 15.4195 19.4759 14.9789C19.0353 14.5384 18.4378 14.2909 17.8147 14.2909Z" fill="white"/>
<path fill-rule="evenodd" clip-rule="evenodd" d="M6.85187 11.5503C6.85187 10.4686 7.7289 9.59259 8.80954 9.59259H26.8201C27.9008 9.59259 28.7778 10.4696 28.7778 11.5503V21.7302C28.7778 22.8118 27.9008 23.6878 26.8201 23.6878H8.80954C8.55246 23.6878 8.29788 23.6372 8.06037 23.5389C7.82286 23.4405 7.60704 23.2962 7.42526 23.1144C7.24347 22.9327 7.09927 22.7168 7.00089 22.4793C6.9025 22.2418 6.85187 21.9872 6.85187 21.7302V11.5503ZM13.8995 16.6402C13.8995 15.6018 14.312 14.6059 15.0463 13.8716C15.7805 13.1374 16.7764 12.7249 17.8148 12.7249C18.8532 12.7249 19.8491 13.1374 20.5834 13.8716C21.3176 14.6059 21.7301 15.6018 21.7301 16.6402C21.7301 17.6786 21.3176 18.6745 20.5834 19.4088C19.8491 20.143 18.8532 20.5556 17.8148 20.5556C16.7764 20.5556 15.7805 20.143 15.0463 19.4088C14.312 18.6745 13.8995 17.6786 13.8995 16.6402ZM24.8625 15.8571C24.6548 15.8571 24.4556 15.9396 24.3087 16.0865C24.1618 16.2334 24.0793 16.4325 24.0793 16.6402V16.6486C24.0793 17.0808 24.4302 17.4316 24.8625 17.4316H24.8709C25.0785 17.4316 25.2776 17.3491 25.4245 17.2023C25.5714 17.0554 25.6539 16.8563 25.6539 16.6486V16.6402C25.6539 16.4325 25.5714 16.2334 25.4245 16.0865C25.2776 15.9396 25.0785 15.8571 24.8709 15.8571H24.8625ZM9.98414 16.6402C9.98414 16.4325 10.0666 16.2334 10.2135 16.0865C10.3604 15.9396 10.5595 15.8571 10.7672 15.8571H10.7756C10.9832 15.8571 11.1824 15.9396 11.3293 16.0865C11.4761 16.2334 11.5586 16.4325 11.5586 16.6402V16.6486C11.5586 16.8563 11.4761 17.0554 11.3293 17.2023C11.1824 17.3491 10.9832 17.4316 10.7756 17.4316H10.7672C10.5595 17.4316 10.3604 17.3491 10.2135 17.2023C10.0666 17.0554 9.98414 16.8563 9.98414 16.6486V16.6402Z" fill="white"/>
<path d="M7.63494 25.2539C7.42725 25.2539 7.22808 25.3364 7.08122 25.4831C6.93437 25.63 6.85187 25.8292 6.85187 26.0369C6.85187 26.2445 6.93437 26.4438 7.08122 26.5907C7.22808 26.7374 7.42725 26.8199 7.63494 26.8199C13.273 26.8199 18.7336 27.5738 23.9227 28.9865C25.1652 29.3247 26.4286 28.4038 26.4286 27.0862V26.0369C26.4286 25.8292 26.3461 25.63 26.1992 25.4831C26.0524 25.3364 25.8531 25.2539 25.6455 25.2539H7.63494Z" fill="white"/>
</g>
<defs>
<clipPath id="clip0_0_1">
<rect width="21.9259" height="20.5556" fill="white" transform="translate(6.85187 9.59259)"/>
</clipPath>
</defs>
</svg>
