<svg width="37" height="37" viewBox="0 0 37 37" fill="none" xmlns="http://www.w3.org/2000/svg">
<circle cx="18.5" cy="18.5" r="18.5" fill="#868686" fill-opacity="0.19"/>
<g clip-path="url(#clip0_0_1)">
<path d="M19 30C25.6274 30 31 24.6274 31 18C31 11.3726 25.6274 6 19 6C12.3726 6 7 11.3726 7 18C7 24.6274 12.3726 30 19 30Z" fill="#F3BA2F"/>
<path d="M19.0589 13.0069L22.5543 16.5023L24.5622 14.4863C24.5622 14.4863 19.002 9.01556 19.002 8.98305L13.5556 14.4294L15.5959 16.4698L19.0589 13.0069ZM19.0589 22.8104L15.5634 19.3149L13.5556 21.3228C13.5556 21.3228 19.1158 26.7936 19.1158 26.8261L24.5622 21.3797L22.5218 19.3393L19.0589 22.8104ZM10.1187 17.9229L12.142 15.8996L14.1652 17.9229L12.142 19.9462L10.1187 17.9229Z" fill="white"/>
<path d="M17.0447 17.9234L19.068 15.9001L21.0913 17.9234L19.068 19.9467L17.0447 17.9234ZM23.9704 17.9233L25.9937 15.9L28.017 17.9233L25.9937 19.9466L23.9704 17.9233Z" fill="white"/>
</g>
<defs>
<clipPath id="clip0_0_1">
<rect width="24" height="24" fill="white" transform="translate(7 6)"/>
</clipPath>
</defs>
</svg>
