<svg width="16" height="19" viewBox="0 0 16 19" fill="none" xmlns="http://www.w3.org/2000/svg">
<path d="M4 1.66667C4 0.745778 4.74667 0 5.66667 0H6C6.88406 0 7.7319 0.351189 8.35702 0.976311C8.98214 1.60143 9.33333 2.44928 9.33333 3.33333V5C9.33333 5.92089 10.08 6.66667 11 6.66667H12.6667C13.5507 6.66667 14.3986 7.01786 15.0237 7.64298C15.6488 8.2681 16 9.11595 16 10V13C16 13.92 15.2533 14.6667 14.3333 14.6667H5.66667C5.22464 14.6667 4.80072 14.4911 4.48815 14.1785C4.17559 13.866 4 13.442 4 13V1.66667Z" fill="white"/>
<path d="M10.6667 3.33321C10.6682 2.21191 10.2645 1.12784 9.52978 0.280762C11.0171 0.671841 12.374 1.45096 13.4614 2.53844C14.5489 3.62592 15.328 4.98272 15.7191 6.4701C14.872 5.73541 13.788 5.33165 12.6667 5.33321H11C10.9116 5.33321 10.8268 5.29809 10.7643 5.23557C10.7018 5.17306 10.6667 5.08828 10.6667 4.99987V3.33321ZM1.66667 3.99987H2.66667V12.9999C2.66667 13.7955 2.98274 14.5586 3.54535 15.1212C4.10796 15.6838 4.87102 15.9999 5.66667 15.9999H12V16.9999C12 17.9199 11.2533 18.6665 10.3333 18.6665H1.66667C1.22464 18.6665 0.800716 18.4909 0.488155 18.1784C0.175595 17.8658 0 17.4419 0 16.9999V5.66654C0 4.74565 0.746667 3.99987 1.66667 3.99987Z" fill="white"/>
</svg>
