<svg xmlns="http://www.w3.org/2000/svg" width="78" height="80" viewBox="0 0 78 80" fill="none">
  <path fill-rule="evenodd" clip-rule="evenodd" d="M0.809249 14.9261C14.923 14.7502 28.4935 9.44649 39 0C49.5058 9.44826 63.0763 14.7538 77.1908 14.931C77.727 18.1068 78 21.3802 78 24.7075C78 50.2357 61.7175 71.9531 39 80C16.2825 71.9482 0 50.2308 0 24.7026C0 21.3705 0.277874 18.1068 0.809249 14.9261ZM57.0716 33.0426C57.9596 32.1212 58.451 30.887 58.4399 29.606C58.4288 28.3249 57.9161 27.0995 57.0122 26.1936C56.1084 25.2878 54.8857 24.7739 53.6075 24.7628C52.3292 24.7517 51.0978 25.2441 50.1784 26.1341L34.125 42.223L27.8216 35.9057C26.9022 35.0157 25.6708 34.5233 24.3925 34.5344C23.1143 34.5455 21.8916 35.0593 20.9878 35.9652C20.0839 36.8711 19.5712 38.0965 19.5601 39.3775C19.549 40.6586 20.0404 41.8927 20.9284 42.8142L30.6784 52.5858C31.5926 53.5017 32.8323 54.0163 34.125 54.0163C35.4177 54.0163 36.6574 53.5017 37.5716 52.5858L57.0716 33.0426Z" fill="#198754"/>
</svg>