<svg width="19" height="19" viewBox="0 0 19 19" fill="none" xmlns="http://www.w3.org/2000/svg">
<g clip-path="url(#clip0_189_342)">
<path fill-rule="evenodd" clip-rule="evenodd" d="M9.5 0C4.25308 0 0 4.25308 0 9.5C0 14.747 4.25308 19 9.5 19C14.747 19 19 14.747 19 9.5C19 4.25308 14.747 0 9.5 0ZM10.2308 6.57692C10.2308 6.38311 10.1538 6.19724 10.0167 6.06019C9.87969 5.92314 9.69381 5.84616 9.5 5.84616C9.30619 5.84616 9.12031 5.92314 8.98327 6.06019C8.84622 6.19724 8.76924 6.38311 8.76924 6.57692V8.76924H6.57692C6.38311 8.76924 6.19724 8.84622 6.06019 8.98327C5.92314 9.12031 5.84616 9.30619 5.84616 9.5C5.84616 9.69381 5.92314 9.87969 6.06019 10.0167C6.19724 10.1538 6.38311 10.2308 6.57692 10.2308H8.76924V12.423C8.76924 12.6168 8.84622 12.8028 8.98327 12.9398C9.12031 13.0769 9.30619 13.1538 9.5 13.1538C9.69381 13.1538 9.87969 13.0769 10.0167 12.9398C10.1538 12.8028 10.2308 12.6168 10.2308 12.423V10.2308H12.423C12.6168 10.2308 12.8028 10.1538 12.9398 10.0167C13.0769 9.87969 13.1538 9.69381 13.1538 9.5C13.1538 9.30619 13.0769 9.12031 12.9398 8.98327C12.8028 8.84622 12.6168 8.76924 12.423 8.76924H10.2308V6.57692Z" fill="white"/>
</g>
<defs>
<clipPath id="clip0_189_342">
<rect width="19" height="19" fill="white"/>
</clipPath>
</defs>
</svg>
