<svg width="37" height="37" viewBox="0 0 37 37" fill="none" xmlns="http://www.w3.org/2000/svg">
<circle cx="18.5" cy="18.5" r="18.5" fill="#868686" fill-opacity="0.19"/>
<g clip-path="url(#clip0_0_1)">
<path d="M17.5 28C22.7467 28 27 23.7467 27 18.5C27 13.2533 22.7467 9 17.5 9C12.2533 9 8 13.2533 8 18.5C8 23.7467 12.2533 28 17.5 28Z" fill="white"/>
<path d="M18.288 14.908H16.5734V18.2883H19.2709V19.7035H16.5734V23.0836H18.372C18.8341 23.0836 22.1659 23.1358 22.1607 19.1509C22.1556 15.1661 18.9293 14.908 18.288 14.908Z" fill="#C2A633"/>
<path d="M18 7C11.3725 7 6 12.3725 6 19C6 25.6275 11.3725 31 18 31C24.6275 31 30 25.6275 30 19C30 12.3725 24.6275 7 18 7ZM18.4715 25.4812H14.1257V19.7037H12.5938V18.2884H14.1256V12.5105H17.8554C18.7378 12.5105 24.5821 12.3273 24.5821 19.1043C24.5821 25.9934 18.4715 25.4812 18.4715 25.4812Z" fill="#C2A633"/>
</g>
<defs>
<clipPath id="clip0_0_1">
<rect width="24" height="24" fill="white" transform="translate(6 7)"/>
</clipPath>
</defs>
</svg>
