<svg width="16" height="18" viewBox="0 0 16 18" fill="none" xmlns="http://www.w3.org/2000/svg">
<path fill-rule="evenodd" clip-rule="evenodd" d="M2.66667 1.33333C2.31304 1.33333 1.97391 1.47381 1.72386 1.72386C1.47381 1.97391 1.33333 2.31304 1.33333 2.66667V14.6667C1.33333 15.0203 1.47381 15.3594 1.72386 15.6095C1.97391 15.8595 2.31304 16 2.66667 16H8C8.35362 16 8.69276 15.8595 8.94281 15.6095C9.19286 15.3594 9.33333 15.0203 9.33333 14.6667V11.3333C9.33333 11.1565 9.40357 10.987 9.5286 10.8619C9.65362 10.7369 9.82319 10.6667 10 10.6667C10.1768 10.6667 10.3464 10.7369 10.4714 10.8619C10.5964 10.987 10.6667 11.1565 10.6667 11.3333V14.6667C10.6667 15.3739 10.3857 16.0522 9.88562 16.5523C9.38552 17.0524 8.70724 17.3333 8 17.3333H2.66667C1.95942 17.3333 1.28115 17.0524 0.781049 16.5523C0.280952 16.0522 0 15.3739 0 14.6667V2.66667C0 1.95942 0.280952 1.28115 0.781049 0.781049C1.28115 0.280952 1.95942 0 2.66667 0H8C8.70724 0 9.38552 0.280952 9.88562 0.781049C10.3857 1.28115 10.6667 1.95942 10.6667 2.66667V6C10.6667 6.17681 10.5964 6.34638 10.4714 6.4714C10.3464 6.59643 10.1768 6.66667 10 6.66667C9.82319 6.66667 9.65362 6.59643 9.5286 6.4714C9.40357 6.34638 9.33333 6.17681 9.33333 6V2.66667C9.33333 2.31304 9.19286 1.97391 8.94281 1.72386C8.69276 1.47381 8.35362 1.33333 8 1.33333H2.66667ZM7.13778 5.52889C7.26262 5.65389 7.33275 5.82333 7.33275 6C7.33275 6.17667 7.26262 6.34611 7.13778 6.47111L5.60889 8H15.3333C15.5101 8 15.6797 8.07024 15.8047 8.19526C15.9298 8.32029 16 8.48986 16 8.66667C16 8.84348 15.9298 9.01305 15.8047 9.13807C15.6797 9.2631 15.5101 9.33333 15.3333 9.33333H5.60889L7.13778 10.8622C7.20328 10.9233 7.25581 10.9969 7.29225 11.0786C7.32869 11.1604 7.34828 11.2487 7.34986 11.3382C7.35144 11.4277 7.33497 11.5166 7.30144 11.5996C7.26791 11.6827 7.21801 11.7581 7.1547 11.8214C7.09139 11.8847 7.01599 11.9346 6.93298 11.9681C6.84996 12.0016 6.76105 12.0181 6.67154 12.0165C6.58202 12.0149 6.49374 11.9954 6.41197 11.9589C6.33019 11.9225 6.25659 11.8699 6.19556 11.8044L3.52889 9.13778C3.40404 9.01278 3.33392 8.84333 3.33392 8.66667C3.33392 8.49 3.40404 8.32056 3.52889 8.19556L6.19556 5.52889C6.32056 5.40404 6.49 5.33392 6.66667 5.33392C6.84333 5.33392 7.01278 5.40404 7.13778 5.52889V5.52889Z" fill="white"/>
</svg>
