<svg width="37" height="37" viewBox="0 0 37 37" fill="none" xmlns="http://www.w3.org/2000/svg">
<circle cx="18.5" cy="18.5" r="18.5" fill="#868686" fill-opacity="0.19"/>
<g clip-path="url(#clip0_0_1)">
<path d="M25 10H12V27H25V10Z" fill="white"/>
<mask id="mask0_0_1" style="mask-type:luminance" maskUnits="userSpaceOnUse" x="6" y="7" width="24" height="24">
<path d="M30 7H6V31H30V7Z" fill="white"/>
</mask>
<g mask="url(#mask0_0_1)">
<path d="M18 29.7012C23.9101 29.7012 28.7012 24.9101 28.7012 19C28.7012 13.0899 23.9101 8.2988 18 8.2988C12.0899 8.2988 7.29877 13.0899 7.29877 19C7.29877 24.9101 12.0899 29.7012 18 29.7012Z" fill="white"/>
<path d="M18 7C15.6266 7 13.3066 7.70379 11.3332 9.02236C9.35977 10.3409 7.8217 12.2151 6.91345 14.4078C6.0052 16.6005 5.76756 19.0133 6.23058 21.3411C6.69361 23.6689 7.83649 25.8071 9.51472 27.4853C11.193 29.1635 13.3312 30.3064 15.6589 30.7694C17.9867 31.2324 20.3995 30.9948 22.5922 30.0866C24.7849 29.1783 26.6591 27.6402 27.9776 25.6668C29.2962 23.6935 30 21.3734 30 19C30.0046 17.4287 29.6996 15.8719 29.1026 14.4185C28.5055 12.965 27.628 11.6434 26.5202 10.5292C25.4123 9.41484 24.0959 8.52965 22.646 7.92412C21.196 7.31859 19.641 7.00457 18.0697 7H18ZM18.2034 19.4068L16.954 23.6199H23.6368C23.6811 23.6183 23.7252 23.6255 23.7667 23.641C23.8082 23.6565 23.8462 23.6801 23.8786 23.7103C23.911 23.7405 23.9371 23.7768 23.9554 23.8171C23.9738 23.8575 23.984 23.901 23.9855 23.9453V24.0557L23.4044 26.0605C23.3787 26.1553 23.3216 26.2386 23.2424 26.2967C23.1632 26.3548 23.0667 26.3842 22.9685 26.3801H12.7409L14.4552 20.54L12.5375 21.1211L12.9734 19.7845L14.8911 19.2034L17.3027 11.0097C17.3292 10.9154 17.3865 10.8327 17.4655 10.7748C17.5445 10.7169 17.6406 10.687 17.7385 10.6901H20.3245C20.3687 10.6885 20.4129 10.6957 20.4544 10.7112C20.4958 10.7267 20.5339 10.7503 20.5663 10.7805C20.5986 10.8107 20.6247 10.8471 20.6431 10.8874C20.6614 10.9277 20.6716 10.9712 20.6731 11.0155V11.1259L18.6392 18.0412L20.5569 17.46L20.1501 18.8547L18.2034 19.4068Z" fill="#345D9D"/>
</g>
</g>
<defs>
<clipPath id="clip0_0_1">
<rect width="24" height="24" fill="white" transform="translate(6 7)"/>
</clipPath>
</defs>
</svg>
