<svg width="19" height="19" viewBox="0 0 19 19" fill="none" xmlns="http://www.w3.org/2000/svg">
<path d="M2.71429 0C1.99441 0 1.30402 0.285968 0.794996 0.794996C0.285968 1.30402 0 1.99441 0 2.71429V5.42857C0 6.14844 0.285968 6.83883 0.794996 7.34786C1.30402 7.85689 1.99441 8.14286 2.71429 8.14286H5.42857C6.14844 8.14286 6.83883 7.85689 7.34786 7.34786C7.85689 6.83883 8.14286 6.14844 8.14286 5.42857V2.71429C8.14286 1.99441 7.85689 1.30402 7.34786 0.794996C6.83883 0.285968 6.14844 0 5.42857 0H2.71429ZM2.71429 10.8571C1.99441 10.8571 1.30402 11.1431 0.794996 11.6521C0.285968 12.1612 0 12.8516 0 13.5714V16.2857C0 17.0056 0.285968 17.696 0.794996 18.205C1.30402 18.714 1.99441 19 2.71429 19H5.42857C6.14844 19 6.83883 18.714 7.34786 18.205C7.85689 17.696 8.14286 17.0056 8.14286 16.2857V13.5714C8.14286 12.8516 7.85689 12.1612 7.34786 11.6521C6.83883 11.1431 6.14844 10.8571 5.42857 10.8571H2.71429ZM10.8571 2.71429C10.8571 1.99441 11.1431 1.30402 11.6521 0.794996C12.1612 0.285968 12.8516 0 13.5714 0H16.2857C17.0056 0 17.696 0.285968 18.205 0.794996C18.714 1.30402 19 1.99441 19 2.71429V5.42857C19 6.14844 18.714 6.83883 18.205 7.34786C17.696 7.85689 17.0056 8.14286 16.2857 8.14286H13.5714C12.8516 8.14286 12.1612 7.85689 11.6521 7.34786C11.1431 6.83883 10.8571 6.14844 10.8571 5.42857V2.71429ZM10.8571 13.5714C10.8571 12.8516 11.1431 12.1612 11.6521 11.6521C12.1612 11.1431 12.8516 10.8571 13.5714 10.8571H16.2857C17.0056 10.8571 17.696 11.1431 18.205 11.6521C18.714 12.1612 19 12.8516 19 13.5714V16.2857C19 17.0056 18.714 17.696 18.205 18.205C17.696 18.714 17.0056 19 16.2857 19H13.5714C12.8516 19 12.1612 18.714 11.6521 18.205C11.1431 17.696 10.8571 17.0056 10.8571 16.2857V13.5714Z" fill="white"/>
</svg>
