<svg width="20" height="19" viewBox="0 0 20 19" fill="none" xmlns="http://www.w3.org/2000/svg">
<path d="M8.6492 0.921616C9.04947 -0.307205 10.788 -0.307205 11.1869 0.921616L12.6145 5.31388C12.7017 5.58138 12.8713 5.81446 13.0989 5.9798C13.3266 6.14514 13.6007 6.23429 13.882 6.2345H18.5011C19.794 6.2345 20.3303 7.88894 19.2856 8.64945L15.5498 11.3633C15.3217 11.5287 15.1518 11.7622 15.0646 12.0302C14.9774 12.2981 14.9772 12.5869 15.0642 12.8549L16.4918 17.2472C16.892 18.476 15.4844 19.4994 14.4371 18.7389L10.7012 16.025C10.4734 15.8596 10.199 15.7705 9.91738 15.7705C9.63578 15.7705 9.3614 15.8596 9.13352 16.025L5.3977 18.7389C4.35166 19.4994 2.94539 18.476 3.34432 17.2472L4.77194 12.8549C4.8589 12.5869 4.85875 12.2981 4.7715 12.0302C4.68425 11.7622 4.5144 11.5287 4.28629 11.3633L0.551792 8.65078C-0.492905 7.89027 0.0447872 6.23583 1.33632 6.23583H5.95407C6.23565 6.23591 6.51004 6.14689 6.73796 5.98153C6.96587 5.81616 7.13562 5.58293 7.22292 5.31522L8.65054 0.92295L8.6492 0.921616Z" fill="white"/>
</svg>
