<svg width="16" height="12" viewBox="0 0 16 12" fill="none" xmlns="http://www.w3.org/2000/svg">
<path fill-rule="evenodd" clip-rule="evenodd" d="M3.15112 0.16712C3.25813 0.274266 3.31824 0.419507 3.31824 0.570939C3.31824 0.722372 3.25813 0.867613 3.15112 0.974759C2.51424 1.61153 2.00903 2.36753 1.66435 3.19957C1.31966 4.03161 1.14225 4.9234 1.14225 5.82402C1.14225 6.72463 1.31966 7.61642 1.66435 8.44846C2.00903 9.2805 2.51424 10.0365 3.15112 10.6733C3.25206 10.7816 3.30701 10.9249 3.3044 11.0729C3.30179 11.221 3.24182 11.3622 3.13712 11.4669C3.03242 11.5716 2.89117 11.6316 2.74313 11.6342C2.59509 11.6368 2.45181 11.5819 2.34348 11.4809C-0.78116 8.35703 -0.78116 3.29177 2.34348 0.16712C2.45063 0.0601076 2.59587 0 2.7473 0C2.89874 0 3.04398 0.0601076 3.15112 0.16712ZM12.8489 0.16712C12.956 0.0601076 13.1013 0 13.2527 0C13.4041 0 13.5494 0.0601076 13.6565 0.16712C16.7812 3.291 16.7812 8.35703 13.6565 11.4817C13.6038 11.5362 13.5407 11.5797 13.471 11.6096C13.4012 11.6396 13.3262 11.6553 13.2504 11.6559C13.1745 11.6565 13.0993 11.642 13.029 11.6133C12.9588 11.5845 12.895 11.5421 12.8414 11.4884C12.7878 11.4347 12.7454 11.3709 12.7167 11.3006C12.688 11.2304 12.6736 11.1551 12.6743 11.0793C12.675 11.0034 12.6907 10.9284 12.7207 10.8587C12.7507 10.789 12.7943 10.726 12.8489 10.6733C13.4856 10.0365 13.9908 9.28057 14.3354 8.44859C14.68 7.61662 14.8574 6.72492 14.8574 5.8244C14.8574 4.92388 14.68 4.03217 14.3354 3.2002C13.9908 2.36823 13.4856 1.61228 12.8489 0.975521C12.7419 0.868375 12.6818 0.723134 12.6818 0.571701C12.6818 0.420269 12.7419 0.274266 12.8489 0.16712ZM4.76716 1.78316C4.82026 1.83623 4.86239 1.89924 4.89113 1.96859C4.91987 2.03795 4.93466 2.11229 4.93466 2.18736C4.93466 2.26243 4.91987 2.33677 4.89113 2.40612C4.86239 2.47548 4.82026 2.53849 4.76716 2.59156C3.9099 3.44888 3.4283 4.61162 3.4283 5.82402C3.4283 7.03641 3.9099 8.19915 4.76716 9.05648C4.87131 9.1642 4.92897 9.30852 4.92774 9.45835C4.92651 9.60819 4.86648 9.75154 4.76058 9.85754C4.65468 9.96354 4.51138 10.0237 4.36155 10.0251C4.21172 10.0264 4.06735 9.96892 3.95952 9.86487C3.42884 9.33424 3.00788 8.70426 2.72068 8.01093C2.43348 7.3176 2.28566 6.57448 2.28566 5.82402C2.28566 5.07355 2.43348 4.33044 2.72068 3.6371C3.00788 2.94377 3.42884 2.3138 3.95952 1.78316C4.06667 1.67615 4.21191 1.61604 4.36334 1.61604C4.51477 1.61604 4.66002 1.67615 4.76716 1.78316ZM11.2328 1.78316C11.34 1.67615 11.4852 1.61604 11.6367 1.61604C11.7881 1.61604 11.9333 1.67615 12.0405 1.78316C12.5712 2.3138 12.9921 2.94377 13.2793 3.6371C13.5665 4.33044 13.7143 5.07355 13.7143 5.82402C13.7143 6.57448 13.5665 7.3176 13.2793 8.01093C12.9921 8.70426 12.5712 9.33424 12.0405 9.86487C11.9322 9.96581 11.7889 10.0208 11.6408 10.0182C11.4928 10.0155 11.3515 9.95557 11.2468 9.85087C11.1421 9.74617 11.0822 9.60493 11.0796 9.45688C11.0769 9.30884 11.1319 9.16556 11.2328 9.05724C11.6574 8.63272 11.9942 8.12872 12.224 7.57403C12.4538 7.01933 12.5721 6.42481 12.5721 5.8244C12.5721 5.22399 12.4538 4.62946 12.224 4.07477C11.9942 3.52007 11.6574 3.01608 11.2328 2.59156C11.1258 2.48441 11.0657 2.33917 11.0657 2.18774C11.0657 2.03631 11.1258 1.89031 11.2328 1.78316ZM6.38396 3.39996C6.49097 3.5071 6.55108 3.65235 6.55108 3.80378C6.55108 3.95521 6.49097 4.10045 6.38396 4.2076C6.17167 4.41986 6.00326 4.67185 5.88837 4.9492C5.77347 5.22655 5.71434 5.52381 5.71434 5.82402C5.71434 6.12422 5.77347 6.42148 5.88837 6.69883C6.00326 6.97618 6.17167 7.22818 6.38396 7.44044C6.43851 7.49318 6.48202 7.55625 6.51193 7.62598C6.54185 7.69572 6.55758 7.77071 6.5582 7.84658C6.55882 7.92246 6.54433 7.9977 6.51556 8.06791C6.4868 8.13813 6.44434 8.20191 6.39066 8.25554C6.33698 8.30917 6.27316 8.35157 6.20291 8.38027C6.13267 8.40897 6.05742 8.42339 5.98154 8.4227C5.90567 8.422 5.83069 8.4062 5.76099 8.37622C5.69128 8.34624 5.62825 8.30268 5.57556 8.24807C4.93279 7.60511 4.5717 6.73317 4.5717 5.82402C4.5717 4.91486 4.93279 4.04293 5.57556 3.39996C5.68271 3.29295 5.82795 3.23284 5.97938 3.23284C6.13081 3.23284 6.27681 3.29295 6.38396 3.39996ZM9.61604 3.39996C9.66911 3.34686 9.73212 3.30473 9.80147 3.27599C9.87083 3.24725 9.94516 3.23246 10.0202 3.23246C10.0953 3.23246 10.1697 3.24725 10.239 3.27599C10.3084 3.30473 10.3714 3.34686 10.4244 3.39996C10.7428 3.71834 10.9954 4.09631 11.1677 4.5123C11.34 4.92829 11.4287 5.37414 11.4287 5.8244C11.4287 6.27466 11.34 6.72051 11.1677 7.1365C10.9954 7.55248 10.7428 7.93046 10.4244 8.24884C10.3161 8.34978 10.1728 8.40473 10.0248 8.40212C9.87675 8.3995 9.7355 8.33953 9.6308 8.23483C9.5261 8.13014 9.46613 7.98889 9.46352 7.84084C9.46091 7.6928 9.51586 7.54952 9.6168 7.4412C9.82921 7.22893 9.99771 6.97688 10.1127 6.69946C10.2276 6.42204 10.2868 6.12469 10.2868 5.8244C10.2868 5.5241 10.2276 5.22675 10.1127 4.94933C9.99771 4.67192 9.82921 4.41987 9.6168 4.2076C9.50979 4.10045 9.44968 3.95521 9.44968 3.80378C9.44968 3.65235 9.50903 3.5071 9.61604 3.39996ZM7.14284 5.8244C7.14284 5.59706 7.23314 5.37904 7.39389 5.21829C7.55464 5.05754 7.77267 4.96723 8 4.96723C8.22733 4.96723 8.44536 5.05754 8.60611 5.21829C8.76685 5.37904 8.85716 5.59706 8.85716 5.8244C8.85716 6.05173 8.76685 6.26975 8.60611 6.4305C8.44536 6.59125 8.22733 6.68156 8 6.68156C7.77267 6.68156 7.55464 6.59125 7.39389 6.4305C7.23314 6.26975 7.14284 6.05173 7.14284 5.8244Z" fill="white"/>
</svg>
