<svg width="37" height="37" viewBox="0 0 37 37" fill="none" xmlns="http://www.w3.org/2000/svg">
<circle cx="18.5" cy="18.5" r="18.5" fill="#868686" fill-opacity="0.19"/>
<path d="M24.5694 9.13713C23.9448 9.76176 23.3725 10.4388 22.8638 11.1606L22.703 11.1083C21.7754 10.8053 20.8141 10.6183 19.8454 10.5547C19.5536 10.5323 18.4652 10.5323 18.1099 10.5547C17.0364 10.6258 16.2135 10.7866 15.2785 11.112C15.2411 11.127 15.2074 11.1382 15.1737 11.1494C14.6463 10.4313 14.0591 9.75802 13.412 9.14087C16.5165 7.55123 20.1484 7.36048 23.3987 8.61349C23.7465 8.7444 24.0869 8.89775 24.4198 9.06232L24.5694 9.13713ZM30.3594 23.3242C29.8881 24.6669 29.1812 25.9125 28.2648 26.9972C27.7674 27.5806 27.2176 28.1155 26.6266 28.6017C25.2427 29.7164 23.6268 30.5131 21.9026 30.932C19.995 31.392 18.0051 31.392 16.0976 30.932C14.3696 30.5131 12.7575 29.7164 11.3736 28.6017C10.7826 28.1155 10.2328 27.5806 9.7353 26.9972C7.09838 23.8815 6.29795 19.6025 7.64072 15.7463C7.89507 15.0319 8.21299 14.3437 8.59451 13.6891C8.7703 13.3899 8.98724 13.0532 9.09197 12.9149C9.45104 14.4596 9.8924 15.8173 10.057 16.3073C10.0457 16.3335 10.0308 16.3634 10.0158 16.3896C9.14433 18.155 8.67305 19.8569 8.56084 21.6672C8.56084 21.6896 8.5571 21.7158 8.5571 21.7383C8.52718 22.2806 8.54214 22.5387 8.63191 22.8791C8.91243 23.9451 9.77645 25.1195 11.1304 26.2715C13.3485 28.1567 16.3557 29.5181 18.6335 29.6752C21.0086 29.8361 24.5133 28.4484 26.8473 26.4211C27.2138 26.0957 27.5579 25.7516 27.8796 25.3851C28.1115 25.1158 28.4556 24.652 28.4294 24.652C28.4219 24.652 28.4294 24.6445 28.4444 24.637C28.4556 24.6295 28.4668 24.6183 28.4593 24.6108C28.4556 24.6071 28.4631 24.5959 28.4743 24.5921C28.4855 24.5884 28.493 24.5809 28.4893 24.5734C28.4855 24.5659 28.4893 24.5585 28.5042 24.5547C28.5154 24.551 28.5192 24.5398 28.5154 24.5323C28.5117 24.5248 28.5154 24.5173 28.5229 24.5173C28.5304 24.5173 28.5379 24.5061 28.5379 24.4986C28.5379 24.4911 28.5454 24.4799 28.5528 24.4799C28.5603 24.4799 28.5678 24.4724 28.5678 24.465C28.579 24.435 28.5977 24.4051 28.6164 24.3789C28.6725 24.2929 28.897 23.8927 28.9269 23.8254C29.1401 23.3429 29.2747 22.9127 29.3383 22.4826C29.3682 22.2769 29.3869 21.8991 29.372 21.8093C29.3682 21.7944 29.3682 21.7682 29.3645 21.727C29.357 21.6522 29.3533 21.54 29.3458 21.4278C29.3383 21.2595 29.3234 21.0239 29.3121 20.9079C29.1513 19.2098 28.7174 17.8221 27.8946 16.3522C27.8609 16.2961 27.831 16.24 27.8123 16.1951C27.8048 16.1839 27.801 16.1727 27.7973 16.1652C27.9133 15.8173 28.3883 14.3624 28.766 12.6979L28.7735 12.7054L28.8296 12.7802C28.9269 12.9111 29.185 13.3001 29.3009 13.4871C29.8283 14.3474 30.2397 15.2713 30.5315 16.2363C31.2085 18.559 31.1524 21.0351 30.3594 23.3242Z" fill="#F00500"/>
<path d="M25.5046 18.8545C25.4934 18.9144 25.3176 19.0939 25.1418 19.2248C24.6256 19.6026 23.7018 19.9542 22.763 20.1225C22.2281 20.2198 21.6932 20.2347 21.5324 20.1562C21.4277 20.1038 21.4127 20.0627 21.4501 19.928C21.5286 19.6475 21.783 19.3408 22.1795 19.0528C22.3814 18.9069 23.2006 18.4094 23.5821 18.2C24.2105 17.8559 24.7191 17.6502 25.0632 17.6015C25.1717 17.5866 25.3026 17.5828 25.3438 17.6015C25.4111 17.6277 25.4859 17.8259 25.5158 18.0653C25.5308 18.1925 25.5233 18.7535 25.5046 18.8545ZM16.6924 20.0926C16.67 20.1375 16.5578 20.1861 16.4306 20.2048C16.3034 20.2235 15.9144 20.2123 15.6937 20.1861C14.9008 20.0814 14.0592 19.8382 13.4458 19.539C13.1017 19.3707 12.8548 19.2024 12.6716 19.0191L12.5668 18.9106L12.5556 18.7685C12.5369 18.5216 12.5407 18.1327 12.5706 17.9943C12.5893 17.8783 12.6304 17.7661 12.6865 17.6651C12.7165 17.6277 12.7165 17.6277 12.8511 17.6277C13.0157 17.6277 13.1541 17.6539 13.3785 17.725C13.8385 17.8671 14.523 18.2112 15.3571 18.7124C16.0453 19.1238 16.3034 19.3258 16.5017 19.6026C16.6363 19.7747 16.7261 20.0178 16.6924 20.0926ZM21.9887 25.2991C21.9887 25.3103 21.9438 25.4899 21.8877 25.7031C21.8316 25.9163 21.7867 26.0883 21.7867 26.0958C21.7456 26.0995 21.7082 26.1033 21.667 26.0995H21.5473L21.3828 26.4885C21.293 26.7017 21.2107 26.9 21.1995 26.9299L21.1771 26.9823L21.0985 26.8551L21.02 26.7279V25.6918L20.99 25.6993C20.9265 25.7143 20.4739 25.7741 20.2756 25.7928C19.4565 25.8751 18.6336 25.8564 17.8182 25.7405C17.6873 25.7218 17.5751 25.7068 17.5714 25.7105C17.5676 25.7143 17.5714 25.9537 17.5789 26.2491L17.5901 26.7803L17.5265 26.8775C17.4928 26.9299 17.4592 26.9748 17.4592 26.9785C17.448 26.9897 17.4106 26.9299 17.3245 26.7578C17.231 26.5783 17.1637 26.3875 17.1151 26.1893L17.0889 26.0808L16.9729 26.0883L16.857 26.0995L16.8271 25.9611C16.8121 25.8863 16.7934 25.7704 16.7859 25.7068L16.7747 25.5871L16.6775 25.5011C16.6213 25.4525 16.5652 25.4038 16.554 25.3964C16.5353 25.3814 16.5278 25.3552 16.5278 25.3328V25.2879L16.9954 25.2916L17.4629 25.2954L17.4779 25.344L17.4928 25.3926L17.6537 25.4001C17.7434 25.4038 18.0277 25.4113 18.2821 25.4188L18.7496 25.43L18.8693 25.243L18.9927 25.056H19.1498L19.1461 24.667L19.1423 24.278L18.9366 24.1882C18.2746 23.8965 17.8856 23.5636 17.7397 23.1596C17.7098 23.0774 17.7098 23.0474 17.7023 22.6734C17.6986 22.3031 17.6986 22.2694 17.7247 22.1872C17.7771 22.0001 17.923 21.8543 18.11 21.8056C18.1736 21.7869 18.3419 21.7869 19.2246 21.7869L20.2644 21.7907L20.3804 21.8468C20.5188 21.9141 20.5823 21.9627 20.6609 22.0675C20.7507 22.1872 20.7768 22.2807 20.7768 22.5088C20.7768 22.8342 20.7544 23.1148 20.7207 23.227C20.6721 23.3803 20.5973 23.5262 20.5038 23.6571C20.3168 23.8965 19.9764 24.1359 19.666 24.2443L19.5762 24.278L19.5799 24.6707L19.5837 25.0635L19.666 25.0709L19.7483 25.0784L19.8605 25.2467L19.9689 25.4151H20.4701C20.7469 25.4151 20.99 25.4188 21.0125 25.4225C21.0499 25.43 21.0574 25.4263 21.0948 25.3627L21.1397 25.2954H21.5698C21.8915 25.2804 21.9887 25.2879 21.9887 25.2991Z" fill="black"/>
<path d="M20.0137 26.3726C19.9427 26.4138 19.8941 26.4325 19.8828 26.425C19.8716 26.4212 19.8192 26.3764 19.7631 26.3352L19.6622 26.2529L19.5574 26.3651C19.3293 26.612 19.3218 26.6232 19.2545 26.627C19.1497 26.6382 19.1273 26.6195 19.0001 26.4287C18.9328 26.3315 18.8804 26.2492 18.8804 26.2492C18.8804 26.2492 18.8318 26.2417 18.7757 26.238L18.671 26.2267L18.6223 26.3277L18.5737 26.4287L18.4877 26.4025C18.4204 26.3801 18.353 26.3539 18.2895 26.324L18.1772 26.2679V26.0547L19.1722 26.0584L20.1671 26.0622L20.1708 26.1632C20.1746 26.2828 20.1783 26.2791 20.0137 26.3726Z" fill="black"/>
<path d="M29.3646 21.8094C29.3609 21.7945 29.3609 21.7683 29.3571 21.7271C28.4595 21.6299 25.8973 21.5701 23.5185 23.5337C23.5185 23.5337 22.7517 20.0178 19.161 20.0178C15.5703 20.0178 14.2388 23.5337 14.2388 23.5337C12.2265 21.3681 9.53344 21.5252 8.56096 21.6673C8.56096 21.6897 8.55722 21.7159 8.55722 21.7384C8.5273 22.2807 8.54226 22.5388 8.63202 22.8792C8.91255 23.9452 9.77656 25.1196 11.1306 26.2716C13.3486 28.1568 16.3558 29.5182 18.6336 29.6753C21.0087 29.8362 24.5134 28.4485 26.8474 26.4212C27.2139 26.0958 27.558 25.7517 27.8797 25.3852C28.1116 25.1159 28.4557 24.6521 28.4295 24.6521C28.4221 24.6521 28.4295 24.6446 28.4445 24.6371C28.4557 24.6296 28.4669 24.6184 28.4595 24.6109C28.4557 24.6072 28.4632 24.596 28.4744 24.5922C28.4856 24.5885 28.4931 24.581 28.4894 24.5735C28.4856 24.5661 28.4894 24.5586 28.5043 24.5548C28.5156 24.5511 28.5193 24.5399 28.5156 24.5324C28.5118 24.5249 28.5156 24.5174 28.523 24.5174C28.5305 24.5174 28.538 24.5062 28.538 24.4987C28.538 24.4912 28.5455 24.48 28.553 24.48C28.5604 24.48 28.5679 24.4725 28.5679 24.4651C28.5791 24.4351 28.5979 24.4052 28.6166 24.379C28.6727 24.293 28.8971 23.8928 28.927 23.8255C29.1402 23.343 29.2748 22.9128 29.3384 22.4827C29.3609 22.277 29.3796 21.8992 29.3646 21.8094ZM20.0138 26.3726C19.9428 26.4138 19.8941 26.4325 19.8829 26.425C19.8717 26.4212 19.8193 26.3764 19.7632 26.3352L19.6622 26.2529L19.5575 26.3651C19.3293 26.612 19.3219 26.6232 19.2545 26.627C19.1498 26.6382 19.1274 26.6195 19.0002 26.4287C18.9329 26.3315 18.8805 26.2492 18.8805 26.2492C18.8805 26.2492 18.8319 26.2417 18.7758 26.238L18.671 26.2268L18.6224 26.3277L18.5738 26.4287L18.4878 26.4025C18.4204 26.3801 18.3531 26.3539 18.2895 26.324L18.1773 26.2679V26.0547L19.1722 26.0584L20.1672 26.0622L20.1709 26.1632C20.1747 26.2829 20.1784 26.2791 20.0138 26.3726ZM21.884 25.6994C21.8279 25.9126 21.783 26.0846 21.783 26.0921C21.7418 26.0958 21.7044 26.0996 21.6633 26.0958H21.5436L21.3828 26.4886C21.293 26.7018 21.2107 26.9 21.1995 26.9299L21.1771 26.9823L21.0985 26.8551L21.02 26.728V25.6919L20.99 25.6994C20.9265 25.7143 20.4739 25.7742 20.2756 25.7929C19.4565 25.8752 18.6336 25.8565 17.8182 25.7405C17.6873 25.7218 17.5751 25.7068 17.5714 25.7106C17.5676 25.7143 17.5714 25.9537 17.5789 26.2492L17.5901 26.7803L17.5265 26.8776C17.4928 26.9299 17.4592 26.9748 17.4592 26.9786C17.448 26.9898 17.4106 26.9299 17.3245 26.7579C17.231 26.5783 17.1637 26.3876 17.1151 26.1893L17.0889 26.0809L16.9729 26.0884L16.857 26.0996L16.8271 25.9612C16.8121 25.8864 16.7934 25.7704 16.7859 25.7068L16.7747 25.5872L16.6775 25.5011C16.6213 25.4525 16.5652 25.4039 16.554 25.3964C16.5353 25.3814 16.5278 25.3553 16.5278 25.3328V25.2879L16.9954 25.2917L17.4629 25.2954L17.4779 25.344L17.4928 25.3927L17.6537 25.4001C17.7434 25.4039 18.0277 25.4114 18.282 25.4188L18.7496 25.4301L18.8693 25.243L18.9927 25.056H19.1498L19.1461 24.667L19.1423 24.278L18.9366 24.1883C18.2746 23.8965 17.8856 23.5636 17.7397 23.1597C17.7098 23.0774 17.7098 23.0475 17.7023 22.6734C17.6986 22.3032 17.6986 22.2695 17.7247 22.1872C17.7771 22.0002 17.923 21.8543 18.11 21.8057C18.1736 21.787 18.3419 21.787 19.2246 21.787L20.2644 21.7907L20.3804 21.8468C20.5188 21.9142 20.5823 21.9628 20.6609 22.0675C20.7507 22.1872 20.7768 22.2807 20.7768 22.5089C20.7768 22.8343 20.7544 23.1148 20.7207 23.227C20.6721 23.3804 20.5973 23.5262 20.5038 23.6572C20.3168 23.8965 19.9764 24.1359 19.666 24.2444L19.5762 24.278L19.5799 24.6708L19.5837 25.0635L19.666 25.071L19.7483 25.0785L19.8605 25.2468L19.9689 25.4151H20.4701C20.7469 25.4151 20.99 25.4188 21.0125 25.4226C21.0499 25.4301 21.0574 25.4263 21.0948 25.3627L21.1397 25.2954H21.5698C21.9027 25.2954 21.9999 25.2992 21.9999 25.3104C21.9887 25.3066 21.9401 25.4899 21.884 25.6994Z" fill="white"/>
<path d="M29.3347 21.4278C29.3272 21.2595 29.3122 21.0239 29.301 20.9079C29.1402 19.2098 28.7063 17.8221 27.8834 16.3522C27.8498 16.2961 27.8199 16.24 27.8011 16.1951C27.7937 16.1839 27.7899 16.1727 27.7862 16.1652C27.9021 15.8173 28.3772 14.3623 28.7549 12.6979C29.2674 10.4388 29.5928 7.79809 28.5978 7.00514C28.5978 7.00514 26.8773 6.87797 24.5733 9.13712C23.9486 9.76175 23.3763 10.4388 22.8677 11.1606L22.7068 11.1083C21.7792 10.8053 20.818 10.6183 19.8492 10.5547C19.5575 10.5323 18.4691 10.5323 18.1137 10.5547C17.0403 10.6258 16.2174 10.7866 15.2823 11.112C15.2449 11.127 15.2112 11.1382 15.1776 11.1494C14.6502 10.4313 14.063 9.75801 13.4159 9.14086C11.0183 6.87049 9.2342 7.0014 9.2342 7.0014C8.17943 7.82053 8.53851 10.5809 9.08459 12.9148C9.44366 14.4596 9.88502 15.8173 10.0496 16.3073C10.0384 16.3335 10.0234 16.3634 10.0085 16.3896C9.13696 18.155 8.66568 19.8569 8.55347 21.6672C9.52969 21.5251 12.219 21.3642 14.235 23.5336C14.235 23.5336 15.5666 20.0177 19.1573 20.0177C22.748 20.0177 23.5147 23.5336 23.5147 23.5336C25.8936 21.5699 28.4557 21.6335 29.3534 21.727C29.3496 21.6522 29.3422 21.54 29.3347 21.4278ZM10.7565 14.8972C10.7565 14.8972 9.35764 11.4 9.71671 9.40268C9.77655 9.06606 9.88876 8.77057 10.0646 8.54615C10.0646 8.54615 11.6505 8.70324 14.2088 11.5459C14.2088 11.5459 13.7226 11.7815 13.0718 12.2827C13.0718 12.2827 13.068 12.2865 13.0643 12.2865C12.3574 12.8288 11.4522 13.6891 10.7565 14.8972ZM16.6924 20.0925C16.67 20.1374 16.5577 20.186 16.4306 20.2047C16.3034 20.2234 15.9144 20.2122 15.6937 20.186C14.9008 20.0813 14.0592 19.8382 13.4458 19.5389C13.1017 19.3706 12.8548 19.2023 12.6716 19.019L12.5668 18.9106L12.5556 18.7684C12.5369 18.5216 12.5406 18.1326 12.5706 17.9942C12.5893 17.8782 12.6304 17.766 12.6865 17.665C12.7164 17.6276 12.7164 17.6276 12.8511 17.6276C13.0157 17.6276 13.1541 17.6538 13.3785 17.7249C13.8385 17.867 14.523 18.2111 15.3571 18.7123C16.0453 19.1238 16.3034 19.3257 16.5016 19.6025C16.6363 19.7746 16.7261 20.0177 16.6924 20.0925ZM25.5046 18.8545C25.4934 18.9143 25.3176 19.0938 25.1418 19.2248C24.6256 19.6025 23.7018 19.9541 22.7629 20.1224C22.2281 20.2197 21.6932 20.2346 21.5324 20.1561C21.4276 20.1037 21.4127 20.0626 21.4501 19.9279C21.5286 19.6474 21.783 19.3407 22.1794 19.0527C22.3814 18.9068 23.2006 18.4094 23.5821 18.1999C24.2104 17.8558 24.7191 17.6501 25.0632 17.6015C25.1717 17.5865 25.3026 17.5828 25.3438 17.6015C25.4111 17.6276 25.4859 17.8259 25.5158 18.0653C25.5308 18.1924 25.5233 18.7535 25.5046 18.8545ZM24.8837 12.2827L24.8762 12.279C24.2478 11.7778 23.7766 11.5421 23.7766 11.5421C26.2489 8.6995 27.7787 8.54241 27.7787 8.54241C27.947 8.77057 28.0555 9.06232 28.1153 9.39894C28.4632 11.3963 27.1129 14.8972 27.1129 14.8972C26.5481 13.8911 25.7889 13.0009 24.8837 12.2827Z" fill="#FFA409"/>
<path d="M28.1189 9.39901C27.8271 9.36161 26.447 9.35413 24.8835 12.2828L24.876 12.2791C24.2476 11.7779 23.7764 11.5422 23.7764 11.5422C26.2487 8.69957 27.7785 8.54248 27.7785 8.54248C27.9506 8.77064 28.059 9.06238 28.1189 9.39901Z" fill="#FF9300"/>
<path d="M27.1165 14.8973C26.548 13.8874 25.7924 13.001 24.8835 12.2828C26.447 9.35415 27.8234 9.36163 28.1189 9.39903C28.4668 11.4001 27.1165 14.8973 27.1165 14.8973Z" fill="#FF8300"/>
<path d="M14.2088 11.5422C14.2088 11.5422 13.7225 11.7779 13.0717 12.2791C13.0717 12.2791 13.068 12.2828 13.0642 12.2828C11.4447 9.35039 10.0196 9.36161 9.71289 9.39901C9.77274 9.06238 9.88495 8.7669 10.0607 8.54248C10.0645 8.54248 11.6504 8.69957 14.2088 11.5422Z" fill="#FF9300"/>
<path d="M13.0679 12.2828C12.3572 12.8289 11.4521 13.6854 10.7564 14.8973C10.7564 14.8973 9.35751 11.4001 9.71658 9.39903C10.0195 9.36163 11.4484 9.35415 13.0679 12.2828ZM9.71658 9.39903C9.69788 9.40277 9.67544 9.40651 9.65674 9.41025L9.71658 9.39903Z" fill="#FF8300"/>
</svg>
