<svg width="16" height="16" viewBox="0 0 16 16" fill="none" xmlns="http://www.w3.org/2000/svg">
<path fill-rule="evenodd" clip-rule="evenodd" d="M2.28571 0C1.67951 0 1.09812 0.240816 0.66947 0.66947C0.240816 1.09812 0 1.67951 0 2.28571V13.7143C0 14.3205 0.240816 14.9019 0.66947 15.3305C1.09812 15.7592 1.67951 16 2.28571 16H13.7143C14.3205 16 14.9019 15.7592 15.3305 15.3305C15.7592 14.9019 16 14.3205 16 13.7143V2.28571C16 1.67951 15.7592 1.09812 15.3305 0.66947C14.9019 0.240816 14.3205 0 13.7143 0H2.28571ZM12.5714 4.57143C12.5714 4.26832 12.451 3.97763 12.2367 3.76331C12.0224 3.54898 11.7317 3.42857 11.4286 3.42857C11.1255 3.42857 10.8348 3.54898 10.6205 3.76331C10.4061 3.97763 10.2857 4.26832 10.2857 4.57143V11.4286C10.2857 11.7317 10.4061 12.0224 10.6205 12.2367C10.8348 12.451 11.1255 12.5714 11.4286 12.5714C11.7317 12.5714 12.0224 12.451 12.2367 12.2367C12.451 12.0224 12.5714 11.7317 12.5714 11.4286V4.57143ZM9.14286 6.85714C9.14286 6.55404 9.02245 6.26335 8.80812 6.04902C8.59379 5.83469 8.3031 5.71429 8 5.71429C7.6969 5.71429 7.40621 5.83469 7.19188 6.04902C6.97755 6.26335 6.85714 6.55404 6.85714 6.85714V11.4286C6.85714 11.7317 6.97755 12.0224 7.19188 12.2367C7.40621 12.451 7.6969 12.5714 8 12.5714C8.3031 12.5714 8.59379 12.451 8.80812 12.2367C9.02245 12.0224 9.14286 11.7317 9.14286 11.4286V6.85714ZM5.71429 10.2857C5.71429 9.98261 5.59388 9.69192 5.37955 9.47759C5.16522 9.26327 4.87453 9.14286 4.57143 9.14286C4.26832 9.14286 3.97763 9.26327 3.76331 9.47759C3.54898 9.69192 3.42857 9.98261 3.42857 10.2857V11.4286C3.42857 11.7317 3.54898 12.0224 3.76331 12.2367C3.97763 12.451 4.26832 12.5714 4.57143 12.5714C4.87453 12.5714 5.16522 12.451 5.37955 12.2367C5.59388 12.0224 5.71429 11.7317 5.71429 11.4286V10.2857Z" fill="white"/>
</svg>
