<svg width="37" height="37" viewBox="0 0 37 37" fill="none" xmlns="http://www.w3.org/2000/svg">
<circle cx="18.5" cy="18.5" r="18.5" fill="#868686" fill-opacity="0.19"/>
<rect x="6" y="6" width="24.8987" height="24.8987" rx="12.4493" fill="black"/>
<path d="M13.2977 21.4973C13.3902 21.4049 13.5156 21.353 13.6463 21.353H25.7092C25.9289 21.353 26.0389 21.6187 25.8835 21.7741L23.4999 24.1557C23.4074 24.2482 23.282 24.3001 23.1513 24.3001H11.0884C10.8686 24.3001 10.7587 24.0344 10.9141 23.879L13.2977 21.4973Z" fill="url(#paint0_linear_132_20)"/>
<path d="M13.2977 12.5994C13.3902 12.507 13.5156 12.4551 13.6463 12.4551H25.7092C25.9289 12.4551 26.0389 12.7208 25.8835 12.8761L23.4999 15.2578C23.4074 15.3502 23.282 15.4021 23.1513 15.4021H11.0884C10.8686 15.4021 10.7587 15.1364 10.9141 14.9811L13.2977 12.5994Z" fill="url(#paint1_linear_132_20)"/>
<path d="M23.4999 17.02C23.4074 16.9276 23.282 16.8757 23.1513 16.8757H11.0884C10.8686 16.8757 10.7587 17.1415 10.9141 17.2968L13.2977 19.6785C13.3902 19.7709 13.5156 19.8228 13.6463 19.8228H25.7092C25.9289 19.8228 26.0389 19.5571 25.8835 19.4017L23.4999 17.02Z" fill="url(#paint2_linear_132_20)"/>
<defs>
<linearGradient id="paint0_linear_132_20" x1="21.0599" y1="9.20599" x2="12.7114" y2="25.1968" gradientUnits="userSpaceOnUse">
<stop stop-color="#00FFA3"/>
<stop offset="1" stop-color="#DC1FFF"/>
</linearGradient>
<linearGradient id="paint1_linear_132_20" x1="21.0599" y1="9.20594" x2="12.7114" y2="25.1967" gradientUnits="userSpaceOnUse">
<stop stop-color="#00FFA3"/>
<stop offset="1" stop-color="#DC1FFF"/>
</linearGradient>
<linearGradient id="paint2_linear_132_20" x1="21.0599" y1="9.20598" x2="12.7114" y2="25.1968" gradientUnits="userSpaceOnUse">
<stop stop-color="#00FFA3"/>
<stop offset="1" stop-color="#DC1FFF"/>
</linearGradient>
</defs>
</svg>
