<svg width="16" height="18" viewBox="0 0 16 18" fill="none" xmlns="http://www.w3.org/2000/svg">
<path d="M13.6667 0C12.7467 0 12 0.746667 12 1.66667V15.6667C12 16.5867 12.7467 17.3333 13.6667 17.3333H14.3333C15.2533 17.3333 16 16.5867 16 15.6667V1.66667C16 0.745778 15.2533 0 14.3333 0H13.6667ZM6 5.66667C6 4.74578 6.74667 4 7.66667 4H8.33333C9.25422 4 10 4.74667 10 5.66667V15.6667C10 16.5867 9.25333 17.3333 8.33333 17.3333H7.66667C7.22464 17.3333 6.80072 17.1577 6.48815 16.8452C6.17559 16.5326 6 16.1087 6 15.6667V5.66667ZM0 9.66667C0 8.74578 0.746667 8 1.66667 8H2.33333C3.25422 8 4 8.74667 4 9.66667V15.6667C4 16.5867 3.25333 17.3333 2.33333 17.3333H1.66667C1.22464 17.3333 0.800716 17.1577 0.488155 16.8452C0.175595 16.5326 0 16.1087 0 15.6667V9.66667Z" fill="white"/>
</svg>
