<svg width="37" height="37" viewBox="0 0 37 37" fill="none" xmlns="http://www.w3.org/2000/svg">
<circle cx="18.5" cy="18.5" r="18.5" fill="#868686" fill-opacity="0.19"/>
<path d="M18 31C24.6274 31 30 25.6274 30 19C30 12.3726 24.6274 7 18 7C11.3726 7 6 12.3726 6 19C6 25.6274 11.3726 31 18 31Z" fill="#50AF95"/>
<path fill-rule="evenodd" clip-rule="evenodd" d="M19.2208 18.9418C19.1526 18.9469 18.8003 18.9679 18.0145 18.9679C17.3895 18.9679 16.9457 18.9491 16.79 18.9418C14.3745 18.8355 12.5716 18.415 12.5716 17.9116C12.5716 17.4082 14.3745 16.9883 16.79 16.8803V18.523C16.948 18.5344 17.4003 18.5611 18.0253 18.5611C18.7753 18.5611 19.1509 18.5298 19.2185 18.5236V16.8814C21.6289 16.9888 23.4278 17.4093 23.4278 17.9116C23.4278 18.4139 21.6294 18.8344 19.2185 18.9412L19.2208 18.9418ZM19.2208 16.7115V15.2416H22.5846V13H13.4262V15.2416H16.7894V16.711C14.0558 16.8365 12 17.378 12 18.0269C12 18.6758 14.0558 19.2168 16.7894 19.3429V24.0534H19.2202V19.3412C21.9476 19.2156 24 18.6747 24 18.0264C24 17.378 21.9499 16.8377 19.2208 16.7115Z" fill="white"/>
</svg>
