<svg width="16" height="16" viewBox="0 0 16 16" fill="none" xmlns="http://www.w3.org/2000/svg">
<path fill-rule="evenodd" clip-rule="evenodd" d="M5.21272 1.27098C5.55894 0.871573 5.98706 0.551349 6.46799 0.332046C6.94893 0.112744 7.47142 -0.000500768 8 1.66456e-06C9.11344 1.66456e-06 10.1112 0.492309 10.7873 1.27098C11.3146 1.23332 11.8439 1.30961 12.3391 1.49465C12.8344 1.67969 13.284 1.96916 13.6574 2.34339C14.0315 2.71677 14.3209 3.16626 14.5059 3.66134C14.691 4.15642 14.7673 4.68552 14.7298 5.21272C15.1291 5.55902 15.4492 5.98717 15.6683 6.4681C15.8875 6.94903 16.0006 7.47149 16 8C16.0005 8.52857 15.8873 9.05107 15.668 9.53201C15.4487 10.0129 15.1284 10.4411 14.729 10.7873C14.7665 11.3145 14.6901 11.8436 14.5051 12.3387C14.3201 12.8337 14.0307 13.2832 13.6566 13.6566C13.2832 14.0307 12.8337 14.3201 12.3387 14.5051C11.8436 14.6901 11.3145 14.7665 10.7873 14.729C10.4411 15.1284 10.0129 15.4486 9.53201 15.668C9.05107 15.8873 8.52858 16.0005 8 16C7.47142 16.0005 6.94893 15.8873 6.46799 15.668C5.98706 15.4486 5.55894 15.1284 5.21272 14.729C4.68544 14.7668 4.15621 14.6906 3.66097 14.5057C3.16573 14.3208 2.71608 14.0315 2.34257 13.6574C1.96839 13.284 1.67895 12.8343 1.49391 12.3391C1.30887 11.8439 1.23256 11.3146 1.27016 10.7873C0.870903 10.441 0.550833 10.0128 0.331674 9.5319C0.112515 9.05097 -0.000601938 8.52851 2.4089e-06 8C2.4089e-06 6.88656 0.49231 5.88882 1.27098 5.21272C1.23344 4.68551 1.30979 4.1564 1.49483 3.66131C1.67987 3.16622 1.96927 2.71674 2.34339 2.34339C2.71674 1.96927 3.16622 1.67987 3.66131 1.49483C4.1564 1.30979 4.68551 1.23344 5.21272 1.27098V1.27098ZM10.9621 6.51159C11.0113 6.44599 11.0469 6.37121 11.0668 6.29165C11.0867 6.21209 11.0905 6.12935 11.078 6.04829C11.0655 5.96723 11.0369 5.8895 10.9939 5.81965C10.9509 5.7498 10.8944 5.68925 10.8277 5.64156C10.761 5.59387 10.6854 5.55999 10.6054 5.54193C10.5254 5.52387 10.4426 5.52198 10.3618 5.53638C10.2811 5.55078 10.204 5.58117 10.1352 5.62577C10.0664 5.67037 10.0072 5.72829 9.96103 5.7961L7.30585 9.51302L5.97333 8.18051C5.85668 8.07181 5.70238 8.01263 5.54296 8.01544C5.38353 8.01826 5.23142 8.08284 5.11867 8.19559C5.00592 8.30834 4.94134 8.46045 4.93852 8.61988C4.93571 8.7793 4.99489 8.9336 5.10359 9.05025L6.94974 10.8964C7.01291 10.9595 7.08907 11.0081 7.17291 11.0389C7.25676 11.0696 7.34629 11.0817 7.43529 11.0744C7.52429 11.0671 7.61063 11.0404 7.68831 10.9964C7.76599 10.9523 7.83315 10.8919 7.88513 10.8193L10.9621 6.51159V6.51159Z" fill="white"/>
</svg>
