<svg width="37" height="37" viewBox="0 0 37 37" fill="none" xmlns="http://www.w3.org/2000/svg">
<circle cx="18.5" cy="18.5" r="18.5" fill="#868686" fill-opacity="0.19"/>
<path d="M18 31C24.6274 31 30 25.6274 30 19C30 12.3726 24.6274 7 18 7C11.3726 7 6 12.3726 6 19C6 25.6274 11.3726 31 18 31Z" fill="white"/>
<path d="M23.0898 12.9469H25.1939L20.8158 17.3005C19.2309 18.8766 16.6618 18.8766 15.0769 17.3005L10.6994 12.9469H12.8035L16.1292 16.2542C17.1327 17.2525 18.7601 17.2525 19.7641 16.2542L23.0898 12.9469ZM12.7767 25.0531H10.6726L15.0775 20.6726C16.6624 19.0965 19.2315 19.0965 20.8164 20.6726L25.2213 25.0531H23.1172L19.7641 21.7189C18.7606 20.7206 17.1333 20.7206 16.1292 21.7189L12.7767 25.0531Z" fill="#23292F"/>
</svg>
