<svg width="299" height="272" viewBox="0 0 299 272" fill="none" xmlns="http://www.w3.org/2000/svg">
<mask id="path-1-inside-1_7997_1572" fill="white">
<path fill-rule="evenodd" clip-rule="evenodd" d="M91.0343 2.64054C67.1029 -1.57921 44.282 14.4002 40.0622 38.3316L17.1407 168.326C12.9209 192.258 28.9003 215.078 52.8317 219.298L67.7555 221.93C68.4887 222.242 69.2344 222.537 69.9923 222.813L194.032 267.959C216.867 276.27 242.116 264.497 250.427 241.662L295.574 117.622C303.885 94.7871 292.111 69.5381 269.276 61.2268L255.535 56.2255C250.894 40.8272 237.949 28.5455 221.029 25.5621L91.0343 2.64054Z"/>
</mask>
<path fill-rule="evenodd" clip-rule="evenodd" d="M91.0343 2.64054C67.1029 -1.57921 44.282 14.4002 40.0622 38.3316L17.1407 168.326C12.9209 192.258 28.9003 215.078 52.8317 219.298L67.7555 221.93C68.4887 222.242 69.2344 222.537 69.9923 222.813L194.032 267.959C216.867 276.27 242.116 264.497 250.427 241.662L295.574 117.622C303.885 94.7871 292.111 69.5381 269.276 61.2268L255.535 56.2255C250.894 40.8272 237.949 28.5455 221.029 25.5621L91.0343 2.64054Z" fill="#0C51A3" fill-opacity="0.7"/>
<path d="M40.0622 38.3316L38.0926 37.9843L40.0622 38.3316ZM91.0343 2.64054L90.687 4.61015L91.0343 2.64054ZM17.1407 168.326L15.171 167.979L17.1407 168.326ZM52.8317 219.298L53.179 217.329L52.8317 219.298ZM67.7555 221.93L68.5396 220.09L68.3286 220L68.1028 219.96L67.7555 221.93ZM69.9923 222.813L70.6763 220.933L70.6763 220.933L69.9923 222.813ZM194.032 267.959L193.348 269.839L194.032 267.959ZM250.427 241.662L248.548 240.978L250.427 241.662ZM295.574 117.622L293.694 116.938L295.574 117.622ZM269.276 61.2268L268.592 63.1062L269.276 61.2268ZM255.535 56.2255L253.62 56.8027L253.91 57.7622L254.851 58.1049L255.535 56.2255ZM221.029 25.5621L221.376 23.5925L221.029 25.5621ZM42.0318 38.6789C46.0598 15.8353 67.8434 0.582217 90.687 4.61015L91.3816 0.670922C66.3624 -3.74063 42.5042 12.9651 38.0926 37.9843L42.0318 38.6789ZM19.1103 168.673L42.0318 38.6789L38.0926 37.9843L15.171 167.979L19.1103 168.673ZM53.179 217.329C30.3354 213.301 15.0823 191.517 19.1103 168.673L15.171 167.979C10.7595 192.998 27.4652 216.856 52.4844 221.268L53.179 217.329ZM68.1028 219.96L53.179 217.329L52.4844 221.268L67.4082 223.899L68.1028 219.96ZM70.6763 220.933C69.9521 220.67 69.2398 220.388 68.5396 220.09L66.9714 223.77C67.7375 224.096 68.5166 224.404 69.3083 224.692L70.6763 220.933ZM194.716 266.08L70.6763 220.933L69.3082 224.692L193.348 269.839L194.716 266.08ZM248.548 240.978C240.614 262.775 216.513 274.013 194.716 266.08L193.348 269.839C217.221 278.528 243.617 266.219 252.306 242.346L248.548 240.978ZM293.694 116.938L248.548 240.978L252.306 242.346L297.453 118.306L293.694 116.938ZM268.592 63.1062C290.389 71.0397 301.628 95.1411 293.694 116.938L297.453 118.306C306.142 94.4332 293.833 68.0365 269.96 59.3474L268.592 63.1062ZM254.851 58.1049L268.592 63.1062L269.96 59.3474L256.219 54.3461L254.851 58.1049ZM220.682 27.5317C236.83 30.379 249.188 42.0991 253.62 56.8027L257.45 55.6483C252.599 39.5553 239.068 26.712 221.376 23.5925L220.682 27.5317ZM90.687 4.61015L220.682 27.5317L221.376 23.5925L91.3816 0.670922L90.687 4.61015Z" fill="url(#paint0_linear_7997_1572)" mask="url(#path-1-inside-1_7997_1572)"/>
<rect opacity="0.6" x="48.5143" y="-3.84154" width="218" height="218" rx="43" transform="rotate(10 48.5143 -3.84154)" fill="#0C51A3" stroke="url(#paint1_linear_7997_1572)" stroke-width="2"/>
<rect x="1" y="1" width="218" height="218" rx="43" fill="#0C51A3"/>
<path d="M104.573 172.637C88.8445 171.453 73.5167 164.857 62.0854 154.358C58.4401 151.013 54.7926 146.907 54.8783 146.241C54.9399 145.757 106.9 91.0399 107.294 91.0399V135.45H172.833C173.155 135.746 170.132 141.131 167.721 144.454C164.911 148.325 162.234 151.335 158.813 154.467C144.468 167.6 124.858 174.17 104.574 172.639L104.573 172.637ZM114.546 128.259V86.2943H47.1473C46.9842 85.8466 51.0555 78.6036 53.1054 75.748C63.7834 60.8706 80.4896 50.8452 99.3609 47.9902C117.984 45.1725 136.654 49.4357 151.883 59.9836C156.645 63.2819 163.358 69.6685 166.43 73.8224C166.94 74.5133 167.358 75.1744 167.358 75.2915L114.545 128.404L114.546 128.259Z" fill="white"/>
<rect x="1" y="1" width="218" height="218" rx="43" stroke="url(#paint2_linear_7997_1572)" stroke-width="2"/>
<defs>
<linearGradient id="paint0_linear_7997_1572" x1="16.4648" y1="-4.75178" x2="273.303" y2="276.753" gradientUnits="userSpaceOnUse">
<stop stop-color="white"/>
<stop offset="0.5" stop-color="white" stop-opacity="0"/>
<stop offset="1" stop-color="white" stop-opacity="0.6"/>
</linearGradient>
<linearGradient id="paint1_linear_7997_1572" x1="47.7031" y1="-10.5" x2="258.703" y2="210" gradientUnits="userSpaceOnUse">
<stop stop-color="white" stop-opacity="0.4"/>
<stop offset="0.5" stop-color="white" stop-opacity="0"/>
<stop offset="1" stop-color="white" stop-opacity="0.6"/>
</linearGradient>
<linearGradient id="paint2_linear_7997_1572" x1="1.07139e-06" y1="-5.5" x2="211" y2="215" gradientUnits="userSpaceOnUse">
<stop stop-color="white" stop-opacity="0.6"/>
<stop offset="0.5" stop-color="white" stop-opacity="0"/>
<stop offset="1" stop-color="white" stop-opacity="0.6"/>
</linearGradient>
</defs>
</svg>
