<svg width="299" height="273" viewBox="0 0 299 273" fill="none" xmlns="http://www.w3.org/2000/svg">
<mask id="path-1-inside-1_6938_37602" fill="white">
<path fill-rule="evenodd" clip-rule="evenodd" d="M91.0348 3.64052C67.1034 -0.57922 44.2824 15.4002 40.0627 39.3315L17.1411 169.326C12.9214 193.258 28.9008 216.078 52.8322 220.298L67.756 222.93C68.4892 223.242 69.2349 223.537 69.9928 223.813L194.032 268.959C216.867 277.27 242.116 265.497 250.428 242.662L295.574 118.622C303.885 95.7871 292.112 70.5381 269.277 62.2268L255.536 57.2255C250.894 41.8272 237.949 29.5455 221.029 26.5621L91.0348 3.64052Z"/>
</mask>
<path fill-rule="evenodd" clip-rule="evenodd" d="M91.0348 3.64052C67.1034 -0.57922 44.2824 15.4002 40.0627 39.3315L17.1411 169.326C12.9214 193.258 28.9008 216.078 52.8322 220.298L67.756 222.93C68.4892 223.242 69.2349 223.537 69.9928 223.813L194.032 268.959C216.867 277.27 242.116 265.497 250.428 242.662L295.574 118.622C303.885 95.7871 292.112 70.5381 269.277 62.2268L255.536 57.2255C250.894 41.8272 237.949 29.5455 221.029 26.5621L91.0348 3.64052Z" fill="#20222F" fill-opacity="0.4"/>
<path d="M40.0627 39.3315L38.0931 38.9842L38.0931 38.9842L40.0627 39.3315ZM91.0348 3.64052L90.6875 5.61014L91.0348 3.64052ZM17.1411 169.326L15.1715 168.979L15.1715 168.979L17.1411 169.326ZM52.8322 220.298L53.1795 218.329L53.1795 218.329L52.8322 220.298ZM67.756 222.93L68.5401 221.09L68.3291 221L68.1032 220.96L67.756 222.93ZM69.9928 223.813L70.6768 221.933L70.6768 221.933L69.9928 223.813ZM194.032 268.959L193.348 270.839L193.348 270.839L194.032 268.959ZM250.428 242.662L248.548 241.978L248.548 241.978L250.428 242.662ZM295.574 118.622L293.695 117.938L293.695 117.938L295.574 118.622ZM269.277 62.2268L268.593 64.1062L268.593 64.1062L269.277 62.2268ZM255.536 57.2255L253.621 57.8027L253.91 58.7622L254.852 59.1049L255.536 57.2255ZM221.029 26.5621L221.377 24.5925L221.377 24.5925L221.029 26.5621ZM42.0323 39.6788C46.0603 16.8353 67.8439 1.5822 90.6875 5.61014L91.3821 1.67091C66.3629 -2.74064 42.5046 13.9651 38.0931 38.9842L42.0323 39.6788ZM19.1108 169.673L42.0323 39.6788L38.0931 38.9842L15.1715 168.979L19.1108 169.673ZM53.1795 218.329C30.3359 214.301 15.0828 192.517 19.1108 169.673L15.1715 168.979C10.76 193.998 27.4657 217.856 52.4849 222.268L53.1795 218.329ZM68.1032 220.96L53.1795 218.329L52.4849 222.268L67.4087 224.899L68.1032 220.96ZM70.6768 221.933C69.9526 221.67 69.2403 221.388 68.5401 221.09L66.9718 224.77C67.738 225.096 68.5171 225.404 69.3087 225.692L70.6768 221.933ZM194.716 267.08L70.6768 221.933L69.3087 225.692L193.348 270.839L194.716 267.08ZM248.548 241.978C240.615 263.775 216.513 275.013 194.716 267.08L193.348 270.839C217.221 279.528 243.618 267.219 252.307 243.346L248.548 241.978ZM293.695 117.938L248.548 241.978L252.307 243.346L297.454 119.306L293.695 117.938ZM268.593 64.1062C290.39 72.0397 301.628 96.141 293.695 117.938L297.454 119.306C306.143 95.4332 293.834 69.0365 269.961 60.3474L268.593 64.1062ZM254.852 59.1049L268.593 64.1062L269.961 60.3474L256.22 55.3461L254.852 59.1049ZM220.682 28.5317C236.83 31.379 249.189 43.0991 253.621 57.8027L257.451 56.6483C252.6 40.5553 239.068 27.712 221.377 24.5925L220.682 28.5317ZM90.6875 5.61014L220.682 28.5317L221.377 24.5925L91.3821 1.67091L90.6875 5.61014Z" fill="url(#paint0_linear_6938_37602)" mask="url(#path-1-inside-1_6938_37602)"/>
<rect x="48.5143" y="-2.84154" width="218" height="218" rx="43" transform="rotate(10 48.5143 -2.84154)" fill="#20222F" fill-opacity="0.5" stroke="url(#paint1_linear_6938_37602)" stroke-width="2"/>
<rect x="1" y="1" width="218" height="218" rx="43" fill="#20222F"/>
<rect x="1" y="1" width="218" height="218" rx="43" fill="url(#paint2_radial_6938_37602)" fill-opacity="0.3"/>
<rect x="1" y="1" width="218" height="218" rx="43" fill="url(#paint3_radial_6938_37602)" fill-opacity="0.3"/>
<rect x="1" y="1" width="218" height="218" rx="43" fill="url(#paint4_radial_6938_37602)" fill-opacity="0.3"/>
<path d="M110.884 78.9456C93.2163 78.9456 80.0787 91.4884 80.0787 109.949C80.0787 128.498 93.2163 141.041 110.884 141.041C122.844 141.041 132.901 135.388 137.159 126.025L172.857 146.076C166.768 156.708 157.845 165.538 147.032 171.633C136.219 177.728 123.917 180.861 111.428 180.701C101.875 180.883 92.3829 179.177 83.5247 175.685C74.6665 172.194 66.6253 166.99 59.886 160.387C53.1467 153.783 47.8489 145.918 44.3121 137.265C40.7753 128.612 39.0727 119.35 39.3069 110.038C39.3069 70.1127 70.1122 39.2857 111.428 39.2857C137.703 39.2857 161.169 52.8884 172.857 73.5575L137.25 93.8733C134.809 89.1579 131.021 85.2315 126.343 82.5672C121.665 79.9029 116.296 78.7029 110.884 78.9456Z" fill="white"/>
<path d="M150.008 121.056C152.945 123.999 156.917 125.671 161.071 125.714C169.593 125.714 176.786 118.564 176.786 109.972C176.786 101.436 169.648 94.2857 161.071 94.2857C152.55 94.2857 145.357 101.436 145.357 109.972C145.4 114.134 147.07 118.113 150.008 121.056Z" fill="#C09C7C"/>
<rect x="1" y="1" width="218" height="218" rx="43" stroke="url(#paint5_linear_6938_37602)" stroke-width="2"/>
<defs>
<linearGradient id="paint0_linear_6938_37602" x1="16.4653" y1="-3.75179" x2="273.304" y2="277.753" gradientUnits="userSpaceOnUse">
<stop stop-color="#C09C7C"/>
<stop offset="0.5" stop-color="#20222F" stop-opacity="0"/>
<stop offset="1" stop-color="#C09C7C"/>
</linearGradient>
<linearGradient id="paint1_linear_6938_37602" x1="47.7031" y1="-9.5" x2="258.703" y2="211" gradientUnits="userSpaceOnUse">
<stop stop-color="#C09C7C"/>
<stop offset="0.5" stop-color="#20222F" stop-opacity="0"/>
<stop offset="1" stop-color="#C09C7C"/>
</linearGradient>
<radialGradient id="paint2_radial_6938_37602" cx="0" cy="0" r="1" gradientUnits="userSpaceOnUse" gradientTransform="translate(-9.16667 -9.19042e-06) rotate(38.0168) scale(178.602 196.115)">
<stop offset="0.0206068" stop-color="white" stop-opacity="0.3"/>
<stop offset="0.432292" stop-color="white" stop-opacity="0"/>
</radialGradient>
<radialGradient id="paint3_radial_6938_37602" cx="0" cy="0" r="1" gradientUnits="userSpaceOnUse" gradientTransform="translate(249.792 78.8333) rotate(179.405) scale(132.465 145.454)">
<stop offset="0.0206068" stop-color="white" stop-opacity="0.4"/>
<stop offset="0.451086" stop-color="white" stop-opacity="0"/>
</radialGradient>
<radialGradient id="paint4_radial_6938_37602" cx="0" cy="0" r="1" gradientUnits="userSpaceOnUse" gradientTransform="translate(84.7917 249.333) rotate(-90) scale(152.167 223.222)">
<stop offset="0.0206068" stop-color="white" stop-opacity="0.3"/>
<stop offset="0.451086" stop-color="white" stop-opacity="0"/>
</radialGradient>
<linearGradient id="paint5_linear_6938_37602" x1="1.07139e-06" y1="-5.5" x2="211" y2="215" gradientUnits="userSpaceOnUse">
<stop stop-color="#C09C7C"/>
<stop offset="0.5" stop-color="#20222F" stop-opacity="0"/>
<stop offset="1" stop-color="#C09C7C"/>
</linearGradient>
</defs>
</svg>
