<svg width="110" height="110" viewBox="0 0 110 110" fill="none" xmlns="http://www.w3.org/2000/svg">
<mask id="mask0_780_379" style="mask-type:luminance" maskUnits="userSpaceOnUse" x="0" y="0" width="110" height="110">
<path d="M0 0H110V110H0V0Z" fill="white"/>
</mask>
<g mask="url(#mask0_780_379)">
<path d="M54.9375 109.875C77.5781 109.875 90.6927 105.24 96.5677 102.422C97.849 101.807 98.9896 101 99.9948 99.9948C101 98.9896 101.807 97.849 102.422 96.5677C105.234 90.6927 109.875 77.5781 109.875 54.9375C109.875 32.3021 105.234 19.1875 102.422 13.3125C101.807 12.0312 101 10.8906 99.9948 9.88542C98.9896 8.88021 97.849 8.07292 96.5677 7.45833C90.6927 4.64063 77.5781 0 54.9375 0C32.2969 0 19.1875 4.64063 13.3125 7.45833C12.0313 8.07292 10.8854 8.88021 9.88021 9.88542C8.88021 10.8906 8.06771 12.0312 7.45313 13.3125C4.64063 19.1875 0 32.3021 0 54.9375C0 77.5781 4.64063 90.6927 7.45313 96.5677C8.06771 97.849 8.88021 98.9896 9.88021 99.9948C10.8854 101 12.0313 101.807 13.3125 102.422C19.1875 105.24 32.2969 109.875 54.9375 109.875Z" fill="#44A08D"/>
</g>
<mask id="mask1_780_379" style="mask-type:luminance" maskUnits="userSpaceOnUse" x="58" y="79" width="3" height="10">
<path d="M58.302 79.6095H60.9687V88.771H58.302V79.6095Z" fill="white"/>
</mask>
<g mask="url(#mask1_780_379)">
<path d="M59.3906 80.5313C59.8177 80.6147 60.2552 80.6824 60.6927 80.7501V89.0574C60.2552 89.0313 59.8281 89.0053 59.3906 88.9636C59.1042 88.9376 58.8021 88.9063 58.5156 88.8647V80.3542C58.8021 80.422 59.0938 80.474 59.3906 80.5313Z" fill="#F9F8F9"/>
</g>
<path d="M60.6771 43.3594V79.125C60.4167 79.0677 60.1563 79.0156 59.9115 78.9583C59.7344 78.9167 59.5573 78.875 59.3906 78.8385C59.2708 78.8073 59.1615 78.7813 59.0521 78.7552C58.875 78.7135 58.6927 78.6563 58.5312 78.6198V43.3594H60.6771Z" fill="#F9F8F9"/>
<mask id="mask2_780_379" style="mask-type:luminance" maskUnits="userSpaceOnUse" x="62" y="80" width="9" height="9">
<path d="M62.302 80.9427H70.302V88.7709H62.302V80.9427Z" fill="white"/>
</mask>
<g mask="url(#mask2_780_379)">
<path d="M69.0676 85C69.0676 85.698 68.901 86.3959 68.5624 87.0105C68.026 87.9792 67.0468 88.7188 65.6093 88.8959C64.5833 89.0157 63.5468 89.0834 62.4791 89.099C62.453 89.099 62.4374 89.099 62.4114 89.099V80.9427C63.1926 81.0105 63.9687 81.0365 64.7603 81.0365C64.8697 81.0365 64.9791 81.0365 65.1041 81.0365C67.703 81.0105 69.0676 83.0052 69.0676 85Z" fill="#F9F8F9"/>
</g>
<path d="M69.9426 29.9011V31.3647H69.0676V80.4897C68.427 79.9584 67.5624 79.6147 66.4843 79.6303C66.3749 79.6303 66.2655 79.6303 66.1405 79.6303C65.3489 79.6303 64.5728 79.6043 63.7916 79.5313C63.328 79.4949 62.8645 79.4532 62.3958 79.3855V42.5001C62.3958 42.0209 61.9999 41.6251 61.526 41.6251H59.3645V31.4011H58.4895V29.9011H69.9426Z" fill="#F9F8F9"/>
<mask id="mask3_780_379" style="mask-type:luminance" maskUnits="userSpaceOnUse" x="56" y="28" width="16" height="61">
<path d="M56.9688 28.9427H71.6354V88.7709H56.9688V28.9427Z" fill="white"/>
</mask>
<g mask="url(#mask3_780_379)">
<path d="M69.9427 29.0365H58.5156C58.0365 29.0365 57.6406 29.4375 57.6406 29.9115V31.4167H59.3906V30.7865H69.0833V31.375H70.8281V29.9011C70.8177 29.4219 70.4219 29.0365 69.9427 29.0365ZM57.6406 43.3594V78.3594C57.9271 78.4428 58.2188 78.5365 58.5156 78.6198C58.6927 78.6719 58.8594 78.7136 59.0365 78.7553C59.1458 78.7813 59.2708 78.8073 59.3802 78.8386V43.3594H57.6406ZM58.5156 80.3542C58.2292 80.2865 57.9271 80.2188 57.6406 80.1459V88.7448C57.9271 88.7865 58.2188 88.8282 58.5156 88.8646C58.8021 88.9063 59.0938 88.9375 59.3906 88.9636V80.5313C59.0938 80.474 58.8021 80.4219 58.5156 80.3542Z" fill="#F9F8F9"/>
</g>
<mask id="mask4_780_379" style="mask-type:luminance" maskUnits="userSpaceOnUse" x="52" y="78" width="9" height="11">
<path d="M52.9688 78.2761H60.9688V88.7709H52.9688V78.2761Z" fill="white"/>
</mask>
<g mask="url(#mask4_780_379)">
<path d="M59.3905 80.5313C59.8176 80.6146 60.2551 80.6823 60.6926 80.75V89.0573C60.2551 89.0313 59.828 89.0052 59.3905 88.9636C59.1041 88.9375 58.802 88.9063 58.5155 88.8646C58.2291 88.8282 57.927 88.7865 57.6405 88.7448C56.4114 88.5521 55.1978 88.2813 54.0208 87.9219V78.9584C55.1978 79.4375 56.401 79.8334 57.6405 80.1459C57.927 80.2188 58.2187 80.2969 58.5155 80.3542C58.802 80.4219 59.0937 80.474 59.3905 80.5313Z" fill="#F9F8F9"/>
</g>
<path d="M60.6771 43.3594V79.125C60.4167 79.0677 60.1563 79.0156 59.9115 78.9583C59.7344 78.9167 59.5573 78.875 59.3906 78.8385C59.2708 78.8073 59.1615 78.7813 59.0521 78.7552C58.875 78.7135 58.6927 78.6563 58.5313 78.6198C58.2448 78.5365 57.9427 78.4531 57.6563 78.3594C56.9063 78.125 56.151 77.8542 55.4271 77.5677C54.9635 77.375 54.5 77.1719 54.0365 76.9635V53.8021C54.0365 53.3229 53.651 52.9271 53.1615 52.9271H51V43.3594H60.6771Z" fill="#F9F8F9"/>
<path d="M50.9895 77.5262C51.4114 77.7553 51.8489 77.9741 52.2864 78.1928V87.3491C51.8489 87.1876 51.427 87.021 50.9895 86.8439C50.703 86.7241 50.401 86.5991 50.1145 86.4637V77.0314C50.4114 77.198 50.703 77.3595 50.9895 77.5262Z" fill="#F9F8F9"/>
<path d="M52.2865 54.6771V76.0782C52.026 75.9375 51.7656 75.7917 51.5208 75.6407C51.3438 75.5313 51.1667 75.4323 51 75.323C50.8802 75.2552 50.7708 75.1719 50.6615 75.1042C50.4844 74.9948 50.3021 74.875 50.1406 74.7657V54.6771H52.2865Z" fill="#F9F8F9"/>
<path d="M49.25 54.6771V74.1511C49.5365 74.3542 49.8281 74.5573 50.125 74.7657C50.3021 74.8855 50.4688 74.9948 50.6458 75.1042C50.7552 75.1719 50.8802 75.2552 50.9896 75.323V54.6771H49.25ZM50.125 77.0313C49.8385 76.8542 49.5365 76.6771 49.25 76.5V86.0365C49.5365 86.1875 49.8281 86.323 50.125 86.4636C50.4115 86.599 50.7031 86.724 51 86.8438V77.5261C50.7031 77.3594 50.4115 77.198 50.125 77.0313Z" fill="#F9F8F9"/>
<path d="M50.9895 77.5262C51.4114 77.7553 51.8489 77.9741 52.2864 78.1928V87.3491C51.8489 87.1876 51.427 87.021 50.9895 86.8439C50.703 86.7241 50.401 86.5991 50.1145 86.4637C49.828 86.323 49.526 86.1876 49.2395 86.0366C46.8072 84.8074 44.5624 83.2501 42.5833 81.4064V70.5939C44.4843 72.8907 46.7239 74.8855 49.2395 76.5001C49.526 76.6772 49.8124 76.8699 50.1145 77.0314C50.4114 77.198 50.703 77.3595 50.9895 77.5262Z" fill="#F9F8F9"/>
<path d="M52.2865 54.6771V76.0782C52.026 75.9375 51.7656 75.7917 51.5208 75.6407C51.3438 75.5313 51.1667 75.4323 51 75.323C50.8802 75.2552 50.7708 75.1719 50.6615 75.1042C50.4844 74.9948 50.3021 74.875 50.1406 74.7657C49.8385 74.5573 49.5521 74.3698 49.2656 74.1511C47.3125 72.7292 45.5469 71.0625 44.0052 69.1875C43.5104 68.599 43.0469 67.9844 42.6094 67.3594V54.6771H52.2865Z" fill="#F9F8F9"/>
<mask id="mask5_780_379" style="mask-type:luminance" maskUnits="userSpaceOnUse" x="51" y="20" width="26" height="12">
<path d="M51.6355 20.7709H76.3803V31.6094H51.6355V20.7709Z" fill="white"/>
</mask>
<g mask="url(#mask5_780_379)">
<path d="M52.0417 31.4323L57.6407 31.4011H59.3907L69.0678 31.3646H70.8178L76.4897 31.349L64.2292 20.7709L52.0417 31.4323Z" fill="#F9F8F9"/>
</g>
<mask id="mask6_780_379" style="mask-type:luminance" maskUnits="userSpaceOnUse" x="33" y="46" width="38" height="43">
<path d="M33.3801 46.2761H70.302V88.7709H33.3801V46.2761Z" fill="white"/>
</mask>
<g mask="url(#mask6_780_379)">
<path d="M69.0676 85.0001C69.0676 85.698 68.9009 86.3959 68.5624 87.0105C68.0259 87.9792 67.0468 88.7188 65.6093 88.8959C64.5832 89.0157 63.5468 89.0834 62.4791 89.099C62.453 89.099 62.4374 89.099 62.4113 89.099C61.8228 89.099 61.2499 89.099 60.677 89.0574C60.2395 89.0313 59.8176 89.0053 59.3801 88.9636C59.0936 88.9376 58.7916 88.9063 58.5051 88.8647C58.2186 88.8282 57.9166 88.7865 57.6301 88.7449C56.4009 88.5522 55.1822 88.2813 54.0051 87.922C53.4218 87.7449 52.8436 87.5574 52.2707 87.349C51.8332 87.1876 51.4113 87.0209 50.9738 86.8438C50.6874 86.724 50.3853 86.599 50.0988 86.4636C49.8124 86.323 49.5103 86.1876 49.2238 86.0365C46.7916 84.8074 44.552 83.2501 42.5676 81.4063C37.0051 76.198 33.4686 68.7917 33.4113 60.5678C33.3853 55.8803 34.4791 51.4532 36.4322 47.5261C36.2707 48.4845 36.1613 49.4428 36.0936 50.4272C36.052 51.0417 36.0363 51.6667 36.0363 52.3126C36.0363 59.2553 38.4947 65.6199 42.5988 70.5834C44.4947 72.8803 46.7395 74.8751 49.2499 76.4845C49.5363 76.6615 49.828 76.8542 50.1249 77.0209C50.4113 77.1824 50.703 77.3595 50.9999 77.5105C51.427 77.7449 51.8645 77.9636 52.2968 78.1824C52.8749 78.4532 53.4478 78.7136 54.0363 78.948C55.2082 79.422 56.4113 79.823 57.6561 80.1355C57.9426 80.2032 58.2291 80.2865 58.5311 80.3386C58.8176 80.4063 59.1041 80.4636 59.4061 80.5157C59.828 80.599 60.2655 80.6667 60.703 80.7345C61.2759 80.8178 61.8541 80.8855 62.4374 80.9272C63.2186 80.9949 63.9947 81.0209 64.7916 81.0209C64.9009 81.0209 65.0103 81.0209 65.1301 81.0209C67.703 81.0105 69.0676 83.0053 69.0676 85.0001Z" fill="#F9F8F9"/>
</g>
</svg>
