<svg width="345" height="110" viewBox="0 0 345 110" fill="none" xmlns="http://www.w3.org/2000/svg">
<path d="M151.947 59.5359L148.843 51.0984H131.156L128.114 59.5359H117.968L135.343 15.1818H144.406L162.343 59.5359H151.947ZM139.968 26.8901L134.197 42.7443H145.801L139.968 26.8901Z" fill="white"/>
<path d="M182.421 24.3693C185.848 24.3693 188.91 25.1557 191.608 26.7234C194.316 28.2807 196.447 30.4213 198.004 33.1401C199.572 35.8641 200.358 38.963 200.358 42.4318C200.358 45.8901 199.572 48.9891 198.004 51.7234C196.447 54.4474 194.316 56.5984 191.608 58.1818C188.91 59.7651 185.848 60.5568 182.421 60.5568C180.655 60.5568 178.968 60.2963 177.358 59.7859C175.744 59.2859 174.285 58.5932 172.983 57.7026V71.8901H163.733V25.3068H169.879L171.462 28.4109C172.889 27.1505 174.535 26.1609 176.4 25.4526C178.259 24.7338 180.264 24.3693 182.421 24.3693ZM181.671 51.8068C183.447 51.8068 185.035 51.4005 186.441 50.5776C187.858 49.7443 188.968 48.6193 189.775 47.2026C190.577 45.7859 190.983 44.1974 190.983 42.4318C190.983 40.6557 190.577 39.0568 189.775 37.6401C188.968 36.2234 187.858 35.1088 186.441 34.2859C185.035 33.4526 183.447 33.0359 181.671 33.0359C179.848 33.0359 178.238 33.4526 176.837 34.2859C175.447 35.1088 174.348 36.2234 173.546 37.6401C172.754 39.0568 172.358 40.6557 172.358 42.4318C172.358 44.1974 172.754 45.7859 173.546 47.2026C174.348 48.6193 175.447 49.7443 176.837 50.5776C178.238 51.4005 179.848 51.8068 181.671 51.8068Z" fill="white"/>
<path d="M220.842 25.1193H223.883V33.8693H219.883C217.258 33.8693 215.383 34.4838 214.258 35.7026C213.144 36.9266 212.592 38.9318 212.592 41.7234V59.5359H203.342V25.3068H209.3L210.946 29.4943C213.264 26.5776 216.561 25.1193 220.842 25.1193Z" fill="white"/>
<path d="M241.814 60.4943C238.257 60.4943 235.085 59.7026 232.293 58.1193C229.512 56.5255 227.319 54.3641 225.71 51.6401C224.095 48.9213 223.293 45.8484 223.293 42.4318C223.293 38.963 224.095 35.8641 225.71 33.1401C227.319 30.4213 229.512 28.2807 232.293 26.7234C235.085 25.1557 238.257 24.3693 241.814 24.3693C245.314 24.3693 248.46 25.1557 251.251 26.7234C254.043 28.2807 256.236 30.4213 257.835 33.1401C259.444 35.8641 260.251 38.963 260.251 42.4318C260.251 45.8484 259.444 48.9213 257.835 51.6401C256.236 54.3641 254.043 56.5255 251.251 58.1193C248.46 59.7026 245.314 60.4943 241.814 60.4943ZM241.814 51.8068C244.465 51.8068 246.637 50.9422 248.335 49.2026C250.027 47.4682 250.876 45.213 250.876 42.4318C250.876 39.6401 250.027 37.3797 248.335 35.6401C246.637 33.9057 244.465 33.0359 241.814 33.0359C239.105 33.0359 236.902 33.9057 235.21 35.6401C233.527 37.3797 232.689 39.6401 232.689 42.4318C232.689 45.213 233.527 47.4682 235.21 49.2026C236.902 50.9422 239.105 51.8068 241.814 51.8068Z" fill="white"/>
<path d="M290.605 36.1401C292.548 37.1713 294.053 38.5984 295.126 40.4318C296.21 42.2651 296.751 44.3693 296.751 46.7443C296.751 49.1088 296.126 51.2599 294.876 53.2026C293.637 55.1505 291.949 56.6922 289.814 57.8276C287.673 58.9682 285.34 59.5359 282.814 59.5359H263.918V15.1818H282.314C284.84 15.1818 287.105 15.6818 289.105 16.6818C291.116 17.6713 292.699 19.0307 293.855 20.7651C295.022 22.4891 295.605 24.4266 295.605 26.5776C295.605 28.4838 295.158 30.2807 294.272 31.9734C293.397 33.6557 292.173 35.0463 290.605 36.1401ZM286.293 28.0984C286.293 26.713 285.845 25.5724 284.96 24.6818C284.069 23.7963 282.866 23.3484 281.355 23.3484H273.376V32.7859H281.355C282.866 32.7859 284.069 32.3484 284.96 31.4734C285.845 30.588 286.293 29.463 286.293 28.0984ZM281.855 50.7234C283.465 50.7234 284.741 50.2599 285.689 49.3276C286.647 48.4005 287.126 47.1974 287.126 45.7234C287.126 44.2807 286.647 43.0984 285.689 42.1818C284.741 41.2547 283.465 40.7859 281.855 40.7859H273.376V50.7234H281.855Z" fill="white"/>
<path d="M300.366 20.7442V12.14H309.616V20.7442H300.366ZM300.366 59.5358V25.3067H309.616V59.5358H300.366Z" fill="white"/>
<path d="M331.608 51.3068H335.795V59.5359H329.253C325.503 59.5359 322.535 58.4526 320.358 56.2859C318.175 54.1088 317.087 51.1141 317.087 47.3068V32.7234H310.878V30.7651L324.441 16.3693H326.149V25.3068H335.608V32.7234H326.358V46.0984C326.358 47.7547 326.806 49.0359 327.712 49.9526C328.613 50.8588 329.91 51.3068 331.608 51.3068Z" fill="white"/>
<path d="M118.843 95.1142V82.01H120.281V93.8225H128.093V95.1142H118.843Z" fill="white"/>
<path d="M137.795 94.1142C137.264 94.5048 136.717 94.7965 136.149 94.9892C135.576 95.1819 134.962 95.2808 134.295 95.2808C133.613 95.2808 132.972 95.1558 132.378 94.9058C131.795 94.6558 131.285 94.3173 130.858 93.885C130.425 93.4423 130.087 92.9267 129.837 92.3433C129.587 91.7496 129.462 91.1038 129.462 90.4058C129.462 89.7392 129.576 89.1142 129.816 88.5308C130.066 87.9371 130.389 87.4215 130.795 86.9892C131.212 86.5465 131.701 86.1975 132.274 85.9475C132.842 85.6975 133.446 85.5725 134.087 85.5725C134.712 85.5725 135.295 85.6975 135.837 85.9475C136.378 86.1975 136.842 86.5465 137.233 86.9892C137.634 87.4215 137.946 87.9371 138.17 88.5308C138.404 89.1142 138.524 89.7392 138.524 90.4058V90.8433H130.837C130.93 91.7756 131.305 92.5465 131.962 93.1558C132.628 93.7704 133.425 94.0725 134.358 94.0725C134.842 94.0725 135.316 93.9996 135.774 93.8433C136.233 93.6923 136.618 93.4788 136.941 93.1975L137.795 94.1142ZM134.045 86.8017C133.238 86.8017 132.535 87.0829 131.941 87.635C131.342 88.1767 130.983 88.8798 130.858 89.7392H137.149C137.024 88.9215 136.67 88.2288 136.087 87.6558C135.503 87.0881 134.821 86.8017 134.045 86.8017Z" fill="white"/>
<path d="M143.415 95.2808C142.384 95.2808 141.545 95.0256 140.894 94.51C140.253 93.9839 139.936 93.2964 139.936 92.4475C139.936 91.5725 140.269 90.8798 140.936 90.3641C141.613 89.8537 142.53 89.5933 143.686 89.5933C144.186 89.5933 144.67 89.6506 145.144 89.76C145.613 89.8746 146.045 90.0256 146.436 90.2183V88.9891C146.436 88.2391 146.217 87.6766 145.79 87.3016C145.373 86.9162 144.759 86.7183 143.957 86.7183C143.483 86.7183 143.009 86.7912 142.54 86.9266C142.082 87.0516 141.571 87.26 141.019 87.5516L140.477 86.4891C141.155 86.1558 141.78 85.9214 142.352 85.7808C142.936 85.6298 143.509 85.5516 144.082 85.5516C145.259 85.5516 146.17 85.8381 146.811 86.4058C147.462 86.9631 147.79 87.76 147.79 88.8016V95.1141H146.436V94.1975C146.019 94.5621 145.55 94.8329 145.04 95.01C144.54 95.1871 143.998 95.2808 143.415 95.2808ZM141.269 92.4266C141.269 92.9423 141.488 93.3641 141.936 93.6975C142.378 94.0308 142.946 94.1975 143.644 94.1975C144.212 94.1975 144.727 94.1141 145.186 93.9475C145.644 93.7704 146.061 93.4891 146.436 93.1141V91.3433C146.045 91.0829 145.628 90.8954 145.186 90.7808C144.753 90.6558 144.269 90.5933 143.727 90.5933C142.977 90.5933 142.378 90.76 141.936 91.0933C141.488 91.4266 141.269 91.8746 141.269 92.4266Z" fill="white"/>
<path d="M157.428 95.1141V94.1141C157.022 94.4891 156.563 94.7756 156.053 94.9683C155.537 95.161 154.99 95.26 154.407 95.26C153.74 95.26 153.115 95.135 152.532 94.885C151.959 94.635 151.459 94.2964 151.032 93.8641C150.615 93.4371 150.282 92.9214 150.032 92.3225C149.793 91.7287 149.678 91.0881 149.678 90.4058C149.678 89.7391 149.793 89.1089 150.032 88.51C150.282 87.9162 150.615 87.4006 151.032 86.9683C151.459 86.5412 151.97 86.1975 152.553 85.9475C153.136 85.6975 153.751 85.5725 154.407 85.5725C154.949 85.5725 155.475 85.6662 155.99 85.8433C156.517 86.0256 156.99 86.2964 157.407 86.6558V82.01L158.803 81.6766V95.1141H157.428ZM151.053 90.385C151.053 90.9006 151.142 91.385 151.324 91.8433C151.501 92.2912 151.746 92.6766 152.053 93.01C152.371 93.3329 152.74 93.5881 153.157 93.7808C153.584 93.9631 154.043 94.0516 154.532 94.0516C155.115 94.0516 155.657 93.9371 156.157 93.6975C156.668 93.4631 157.084 93.1454 157.407 92.7391V88.0933C157.084 87.6923 156.668 87.3798 156.157 87.1558C155.642 86.9214 155.1 86.8016 154.532 86.8016C153.558 86.8016 152.73 87.1506 152.053 87.8433C151.386 88.5256 151.053 89.3746 151.053 90.385Z" fill="white"/>
<path d="M161.847 83.9266C161.597 83.9266 161.373 83.8381 161.18 83.6558C160.998 83.4631 160.909 83.2391 160.909 82.9891C160.909 82.7287 160.998 82.5048 161.18 82.3225C161.373 82.1454 161.597 82.0516 161.847 82.0516C162.107 82.0516 162.331 82.1454 162.514 82.3225C162.691 82.5048 162.784 82.7287 162.784 82.9891C162.784 83.2391 162.691 83.4631 162.514 83.6558C162.331 83.8381 162.107 83.9266 161.847 83.9266ZM162.534 85.7391V95.1141H161.159V85.7391H162.534Z" fill="white"/>
<path d="M164.903 95.1141V85.7391H166.278V86.8433C166.638 86.4162 167.07 86.0933 167.57 85.885C168.07 85.6662 168.622 85.5516 169.237 85.5516C170.304 85.5516 171.174 85.8954 171.841 86.5725C172.518 87.2391 172.862 88.1089 172.862 89.1766V95.1141H171.487V89.4683C171.487 88.635 171.247 87.9787 170.778 87.4891C170.304 87.0048 169.664 86.76 168.862 86.76C168.304 86.76 167.804 86.885 167.362 87.135C166.914 87.385 166.554 87.7391 166.278 88.1975V95.1141H164.903Z" fill="white"/>
<path d="M179.43 95.1975C178.773 95.1975 178.164 95.0725 177.596 94.8225C177.023 94.5725 176.523 94.234 176.096 93.8017C175.68 93.3746 175.346 92.8642 175.096 92.2808C174.857 91.6871 174.742 91.0517 174.742 90.385C174.742 89.7079 174.857 89.0725 175.096 88.4892C175.346 87.9058 175.68 87.4006 176.096 86.9683C176.523 86.5256 177.023 86.1871 177.596 85.9475C178.18 85.6975 178.805 85.5725 179.471 85.5725C179.997 85.5725 180.513 85.6715 181.013 85.8642C181.523 86.0465 181.997 86.3173 182.43 86.6767V85.7392H183.784V95.3433C183.784 96.5361 183.43 97.4527 182.721 98.0933C182.023 98.7444 181.034 99.0725 179.742 99.0725C179.086 99.0725 178.44 98.9788 177.805 98.8017C177.18 98.635 176.602 98.3954 176.076 98.0933L176.68 97.01C177.232 97.3017 177.747 97.5152 178.221 97.6558C178.706 97.7913 179.19 97.8642 179.68 97.8642C180.565 97.8642 181.242 97.6454 181.701 97.2183C182.169 96.8017 182.409 96.1819 182.409 95.3642V94.0933C181.977 94.4579 181.503 94.734 180.992 94.9267C180.492 95.109 179.971 95.1975 179.43 95.1975ZM176.117 90.385C176.117 90.885 176.201 91.359 176.367 91.8017C176.544 92.234 176.789 92.609 177.096 92.9267C177.398 93.2496 177.763 93.5048 178.18 93.6975C178.607 93.8798 179.06 93.9683 179.534 93.9683C180.128 93.9683 180.68 93.859 181.18 93.635C181.68 93.4163 182.086 93.0933 182.409 92.6767V88.0725C182.086 87.6715 181.669 87.359 181.159 87.135C180.659 86.9163 180.117 86.8017 179.534 86.8017C179.044 86.8017 178.596 86.8954 178.18 87.0725C177.763 87.2548 177.398 87.51 177.096 87.8433C176.789 88.1663 176.544 88.5465 176.367 88.9892C176.201 89.4215 176.117 89.885 176.117 90.385Z" fill="white"/>
<path d="M189.194 92.8642L190.153 91.8642C190.819 92.5882 191.533 93.1351 192.299 93.5101C193.075 93.8746 193.887 94.0517 194.736 94.0517C195.762 94.0517 196.601 93.8121 197.257 93.3226C197.924 92.8382 198.257 92.2184 198.257 91.4684C198.257 90.7913 198.017 90.2705 197.549 89.9059C197.09 89.5465 196.319 89.2757 195.236 89.0934L193.34 88.8017C192.09 88.609 191.158 88.2392 190.549 87.6976C189.95 87.1455 189.653 86.4059 189.653 85.4892C189.653 84.4059 190.075 83.5309 190.924 82.8642C191.783 82.1871 192.903 81.8434 194.278 81.8434C195.179 81.8434 196.08 81.9996 196.986 82.3017C197.887 82.5934 198.705 83.0205 199.444 83.5726L198.611 84.6976C197.903 84.1559 197.179 83.7548 196.444 83.4892C195.705 83.2132 194.965 83.0726 194.215 83.0726C193.267 83.0726 192.507 83.2913 191.924 83.7184C191.351 84.1507 191.069 84.708 191.069 85.3851C191.069 85.9996 191.267 86.4632 191.674 86.7809C192.09 87.1038 192.767 87.3382 193.715 87.4892L195.59 87.7809C197.017 88.0309 198.059 88.4423 198.715 89.0101C199.366 89.583 199.694 90.3746 199.694 91.3851C199.694 91.958 199.569 92.484 199.319 92.9684C199.08 93.458 198.741 93.8746 198.299 94.2184C197.851 94.5517 197.319 94.8173 196.694 95.0101C196.08 95.2028 195.408 95.3017 194.674 95.3017C193.642 95.3017 192.653 95.0934 191.694 94.6767C190.736 94.2601 189.903 93.6559 189.194 92.8642Z" fill="white"/>
<path d="M201.405 95.1141V85.7391H202.78V86.76C203.124 86.3589 203.53 86.0621 203.988 85.8641C204.457 85.6558 204.972 85.5516 205.53 85.5516C206.181 85.5516 206.764 85.7079 207.28 86.01C207.806 86.3173 208.207 86.7287 208.488 87.2391C208.874 86.6714 209.342 86.2496 209.884 85.9683C210.426 85.6923 211.035 85.5516 211.717 85.5516C212.728 85.5516 213.556 85.8954 214.196 86.5725C214.832 87.2391 215.155 88.1089 215.155 89.1766V95.1141H213.801V89.4683C213.801 88.635 213.577 87.9787 213.134 87.4891C212.702 87.0048 212.113 86.76 211.363 86.76C210.847 86.76 210.374 86.8954 209.946 87.1558C209.53 87.4214 209.165 87.8016 208.863 88.3016C208.889 88.4423 208.91 88.5829 208.926 88.7183C208.952 88.8589 208.967 89.01 208.967 89.1766V95.1141H207.592V89.4683C207.592 88.635 207.368 87.9787 206.926 87.4891C206.493 87.0048 205.91 86.76 205.176 86.76C204.676 86.76 204.222 86.8798 203.821 87.1141C203.415 87.3381 203.071 87.6766 202.78 88.135V95.1141H201.405Z" fill="white"/>
<path d="M220.443 95.2808C219.411 95.2808 218.573 95.0256 217.922 94.51C217.281 93.9839 216.963 93.2964 216.963 92.4475C216.963 91.5725 217.297 90.8798 217.963 90.3641C218.64 89.8537 219.557 89.5933 220.713 89.5933C221.213 89.5933 221.698 89.6506 222.172 89.76C222.64 89.8746 223.073 90.0256 223.463 90.2183V88.9891C223.463 88.2391 223.245 87.6766 222.818 87.3016C222.401 86.9162 221.786 86.7183 220.984 86.7183C220.51 86.7183 220.036 86.7912 219.568 86.9266C219.109 87.0516 218.599 87.26 218.047 87.5516L217.505 86.4891C218.182 86.1558 218.807 85.9214 219.38 85.7808C219.963 85.6298 220.536 85.5516 221.109 85.5516C222.286 85.5516 223.198 85.8381 223.838 86.4058C224.489 86.9631 224.818 87.76 224.818 88.8016V95.1141H223.463V94.1975C223.047 94.5621 222.578 94.8329 222.068 95.01C221.568 95.1871 221.026 95.2808 220.443 95.2808ZM218.297 92.4266C218.297 92.9423 218.515 93.3641 218.963 93.6975C219.406 94.0308 219.974 94.1975 220.672 94.1975C221.239 94.1975 221.755 94.1141 222.213 93.9475C222.672 93.7704 223.088 93.4891 223.463 93.1141V91.3433C223.073 91.0829 222.656 90.8954 222.213 90.7808C221.781 90.6558 221.297 90.5933 220.755 90.5933C220.005 90.5933 219.406 90.76 218.963 91.0933C218.515 91.4266 218.297 91.8746 218.297 92.4266Z" fill="white"/>
<path d="M227.143 95.1142V85.7392H228.518V87.0517C228.794 86.5673 229.153 86.1923 229.601 85.9267C230.06 85.6663 230.57 85.5309 231.143 85.5309C231.32 85.5309 231.476 85.5413 231.601 85.5517C231.737 85.5673 231.877 85.6038 232.018 85.6559V86.9267C231.862 86.8851 231.706 86.8538 231.539 86.8226C231.372 86.7809 231.211 86.7601 231.06 86.7601C230.476 86.7601 229.961 86.9267 229.518 87.2601C229.086 87.5934 228.752 88.0726 228.518 88.6976V95.1142H227.143Z" fill="white"/>
<path d="M234.765 93.01V86.9058H232.745V85.7391H234.765V83.3433L236.14 82.9891V85.7391H238.974V86.9058H236.14V92.6558C236.14 93.1558 236.25 93.5204 236.474 93.7391C236.693 93.9631 237.062 94.0725 237.578 94.0725C237.838 94.0725 238.078 94.0516 238.286 94.01C238.495 93.9683 238.713 93.9058 238.953 93.8225V95.0308C238.713 95.1246 238.453 95.1871 238.161 95.2183C237.87 95.26 237.583 95.2808 237.307 95.2808C236.484 95.2808 235.854 95.0881 235.411 94.6975C234.979 94.3121 234.765 93.7496 234.765 93.01Z" fill="white"/>
<path d="M244.727 95.1142V82.01H246.164V95.1142H244.727Z" fill="white"/>
<path d="M248.801 95.1141V85.7391H250.176V86.8433C250.535 86.4162 250.967 86.0933 251.467 85.885C251.967 85.6662 252.52 85.5516 253.134 85.5516C254.202 85.5516 255.072 85.8954 255.738 86.5725C256.415 87.2391 256.759 88.1089 256.759 89.1766V95.1141H255.384V89.4683C255.384 88.635 255.145 87.9787 254.676 87.4891C254.202 87.0048 253.561 86.76 252.759 86.76C252.202 86.76 251.702 86.885 251.259 87.135C250.811 87.385 250.452 87.7391 250.176 88.1975V95.1141H248.801Z" fill="white"/>
<path d="M262.056 95.1141L257.973 85.7391H259.514L262.723 93.3225L265.931 85.7391H267.41L263.368 95.1141H262.056Z" fill="white"/>
<path d="M276.576 94.1142C276.044 94.5048 275.497 94.7965 274.93 94.9892C274.357 95.1819 273.742 95.2808 273.076 95.2808C272.393 95.2808 271.753 95.1558 271.159 94.9058C270.576 94.6558 270.065 94.3173 269.638 93.885C269.206 93.4423 268.867 92.9267 268.617 92.3433C268.367 91.7496 268.242 91.1038 268.242 90.4058C268.242 89.7392 268.357 89.1142 268.596 88.5308C268.846 87.9371 269.169 87.4215 269.576 86.9892C269.992 86.5465 270.482 86.1975 271.055 85.9475C271.622 85.6975 272.227 85.5725 272.867 85.5725C273.492 85.5725 274.076 85.6975 274.617 85.9475C275.159 86.1975 275.622 86.5465 276.013 86.9892C276.414 87.4215 276.727 87.9371 276.951 88.5308C277.185 89.1142 277.305 89.7392 277.305 90.4058V90.8433H269.617C269.711 91.7756 270.086 92.5465 270.742 93.1558C271.409 93.7704 272.206 94.0725 273.138 94.0725C273.622 94.0725 274.096 93.9996 274.555 93.8433C275.013 93.6923 275.398 93.4788 275.721 93.1975L276.576 94.1142ZM272.826 86.8017C272.018 86.8017 271.315 87.0829 270.721 87.635C270.122 88.1767 269.763 88.8798 269.638 89.7392H275.93C275.805 88.9215 275.451 88.2288 274.867 87.6558C274.284 87.0881 273.602 86.8017 272.826 86.8017Z" fill="white"/>
<path d="M278.279 93.8225L279.112 92.9267C279.539 93.3329 280.018 93.6454 280.55 93.8642C281.076 94.0725 281.617 94.1767 282.175 94.1767C282.925 94.1767 283.534 94.0256 284.008 93.7183C284.477 93.4006 284.716 92.9892 284.716 92.4892C284.716 92.0881 284.576 91.7756 284.3 91.5517C284.018 91.3173 283.576 91.1558 282.966 91.0725L281.341 90.8433C280.409 90.7079 279.716 90.4267 279.258 90.01C278.8 89.5933 278.57 89.0308 278.57 88.3225C278.57 87.5308 278.893 86.8798 279.55 86.3642C280.216 85.8381 281.06 85.5725 282.091 85.5725C282.768 85.5725 283.409 85.6767 284.008 85.885C284.617 86.0829 285.206 86.3954 285.779 86.8225L285.05 87.76C284.518 87.4163 284.008 87.1506 283.508 86.9683C283.018 86.7913 282.529 86.6975 282.029 86.6975C281.388 86.6975 280.862 86.8433 280.445 87.135C280.039 87.4267 279.841 87.8017 279.841 88.26C279.841 88.6663 279.977 88.9788 280.258 89.1975C280.534 89.4058 280.977 89.5517 281.591 89.635L283.216 89.8642C284.159 89.9892 284.862 90.2704 285.32 90.6975C285.789 91.1298 286.029 91.7079 286.029 92.4267C286.029 92.8173 285.93 93.1923 285.737 93.5517C285.539 93.9163 285.268 94.2183 284.925 94.4683C284.591 94.7183 284.185 94.9215 283.716 95.0725C283.258 95.2079 282.758 95.2808 282.216 95.2808C281.451 95.2808 280.727 95.1558 280.05 94.9058C279.367 94.6454 278.779 94.2808 278.279 93.8225Z" fill="white"/>
<path d="M288.732 93.01V86.9058H286.711V85.7391H288.732V83.3433L290.107 82.9891V85.7391H292.94V86.9058H290.107V92.6558C290.107 93.1558 290.216 93.5204 290.44 93.7391C290.659 93.9631 291.029 94.0725 291.544 94.0725C291.805 94.0725 292.044 94.0516 292.253 94.01C292.461 93.9683 292.68 93.9058 292.919 93.8225V95.0308C292.68 95.1246 292.419 95.1871 292.128 95.2183C291.836 95.26 291.549 95.2808 291.273 95.2808C290.451 95.2808 289.82 95.0881 289.378 94.6975C288.945 94.3121 288.732 93.7496 288.732 93.01Z" fill="white"/>
<path d="M294.418 95.1141V85.7391H295.793V86.76C296.137 86.3589 296.543 86.0621 297.001 85.8641C297.47 85.6558 297.986 85.5516 298.543 85.5516C299.194 85.5516 299.777 85.7079 300.293 86.01C300.819 86.3173 301.22 86.7287 301.501 87.2391C301.887 86.6714 302.355 86.2496 302.897 85.9683C303.439 85.6923 304.048 85.5516 304.73 85.5516C305.741 85.5516 306.569 85.8954 307.21 86.5725C307.845 87.2391 308.168 88.1089 308.168 89.1766V95.1141H306.814V89.4683C306.814 88.635 306.59 87.9787 306.147 87.4891C305.715 87.0048 305.126 86.76 304.376 86.76C303.861 86.76 303.387 86.8954 302.96 87.1558C302.543 87.4214 302.178 87.8016 301.876 88.3016C301.902 88.4423 301.923 88.5829 301.939 88.7183C301.965 88.8589 301.98 89.01 301.98 89.1766V95.1141H300.605V89.4683C300.605 88.635 300.382 87.9787 299.939 87.4891C299.507 87.0048 298.923 86.76 298.189 86.76C297.689 86.76 297.236 86.8798 296.835 87.1141C296.428 87.3381 296.085 87.6766 295.793 88.135V95.1141H294.418Z" fill="white"/>
<path d="M318.393 94.1142C317.862 94.5048 317.315 94.7965 316.748 94.9892C316.175 95.1819 315.56 95.2808 314.893 95.2808C314.211 95.2808 313.57 95.1558 312.977 94.9058C312.393 94.6558 311.883 94.3173 311.456 93.885C311.024 93.4423 310.685 92.9267 310.435 92.3433C310.185 91.7496 310.06 91.1038 310.06 90.4058C310.06 89.7392 310.175 89.1142 310.414 88.5308C310.664 87.9371 310.987 87.4215 311.393 86.9892C311.81 86.5465 312.3 86.1975 312.873 85.9475C313.44 85.6975 314.044 85.5725 314.685 85.5725C315.31 85.5725 315.893 85.6975 316.435 85.9475C316.977 86.1975 317.44 86.5465 317.831 86.9892C318.232 87.4215 318.544 87.9371 318.768 88.5308C319.003 89.1142 319.123 89.7392 319.123 90.4058V90.8433H311.435C311.529 91.7756 311.904 92.5465 312.56 93.1558C313.227 93.7704 314.024 94.0725 314.956 94.0725C315.44 94.0725 315.914 93.9996 316.373 93.8433C316.831 93.6923 317.216 93.4788 317.539 93.1975L318.393 94.1142ZM314.643 86.8017C313.836 86.8017 313.133 87.0829 312.539 87.635C311.94 88.1767 311.581 88.8798 311.456 89.7392H317.748C317.623 88.9215 317.268 88.2288 316.685 87.6558C316.102 87.0881 315.419 86.8017 314.643 86.8017Z" fill="white"/>
<path d="M321.055 95.1141V85.7391H322.43V86.8433C322.789 86.4162 323.221 86.0933 323.721 85.885C324.221 85.6662 324.773 85.5516 325.388 85.5516C326.456 85.5516 327.326 85.8954 327.992 86.5725C328.669 87.2391 329.013 88.1089 329.013 89.1766V95.1141H327.638V89.4683C327.638 88.635 327.398 87.9787 326.93 87.4891C326.456 87.0048 325.815 86.76 325.013 86.76C324.456 86.76 323.956 86.885 323.513 87.135C323.065 87.385 322.706 87.7391 322.43 88.1975V95.1141H321.055Z" fill="white"/>
<path d="M332.477 93.01V86.9058H330.456V85.7391H332.477V83.3433L333.852 82.9891V85.7391H336.685V86.9058H333.852V92.6558C333.852 93.1558 333.961 93.5204 334.185 93.7391C334.404 93.9631 334.774 94.0725 335.289 94.0725C335.55 94.0725 335.789 94.0516 335.998 94.01C336.206 93.9683 336.425 93.9058 336.664 93.8225V95.0308C336.425 95.1246 336.164 95.1871 335.873 95.2183C335.581 95.26 335.295 95.2808 335.019 95.2808C334.196 95.2808 333.565 95.0881 333.123 94.6975C332.69 94.3121 332.477 93.7496 332.477 93.01Z" fill="white"/>
<path d="M337.205 93.8225L338.038 92.9267C338.465 93.3329 338.945 93.6454 339.476 93.8642C340.002 94.0725 340.544 94.1767 341.101 94.1767C341.851 94.1767 342.46 94.0256 342.934 93.7183C343.403 93.4006 343.643 92.9892 343.643 92.4892C343.643 92.0881 343.502 91.7756 343.226 91.5517C342.945 91.3173 342.502 91.1558 341.893 91.0725L340.268 90.8433C339.335 90.7079 338.643 90.4267 338.184 90.01C337.726 89.5933 337.497 89.0308 337.497 88.3225C337.497 87.5308 337.82 86.8798 338.476 86.3642C339.143 85.8381 339.986 85.5725 341.018 85.5725C341.695 85.5725 342.335 85.6767 342.934 85.885C343.544 86.0829 344.132 86.3954 344.705 86.8225L343.976 87.76C343.445 87.4163 342.934 87.1506 342.434 86.9683C341.945 86.7913 341.455 86.6975 340.955 86.6975C340.314 86.6975 339.788 86.8433 339.372 87.135C338.965 87.4267 338.768 87.8017 338.768 88.26C338.768 88.6663 338.903 88.9788 339.184 89.1975C339.46 89.4058 339.903 89.5517 340.518 89.635L342.143 89.8642C343.085 89.9892 343.788 90.2704 344.247 90.6975C344.715 91.1298 344.955 91.7079 344.955 92.4267C344.955 92.8173 344.856 93.1923 344.663 93.5517C344.465 93.9163 344.195 94.2183 343.851 94.4683C343.518 94.7183 343.111 94.9215 342.643 95.0725C342.184 95.2079 341.684 95.2808 341.143 95.2808C340.377 95.2808 339.653 95.1558 338.976 94.9058C338.294 94.6454 337.705 94.2808 337.205 93.8225Z" fill="white"/>
<mask id="mask0_780_378" style="mask-type:luminance" maskUnits="userSpaceOnUse" x="0" y="0" width="110" height="110">
<path d="M0 0H110V110H0V0Z" fill="white"/>
</mask>
<g mask="url(#mask0_780_378)">
<path d="M54.9375 109.875C77.5781 109.875 90.6927 105.24 96.5677 102.422C97.849 101.807 98.9896 101 99.9948 99.9948C101 98.9896 101.807 97.849 102.422 96.5677C105.234 90.6927 109.875 77.5781 109.875 54.9375C109.875 32.3021 105.234 19.1875 102.422 13.3125C101.807 12.0312 101 10.8906 99.9948 9.88542C98.9896 8.88021 97.849 8.07292 96.5677 7.45833C90.6927 4.64063 77.5781 0 54.9375 0C32.2969 0 19.1875 4.64063 13.3125 7.45833C12.0313 8.07292 10.8854 8.88021 9.88021 9.88542C8.88021 10.8906 8.06771 12.0312 7.45313 13.3125C4.64063 19.1875 0 32.3021 0 54.9375C0 77.5781 4.64063 90.6927 7.45313 96.5677C8.06771 97.849 8.88021 98.9896 9.88021 99.9948C10.8854 101 12.0313 101.807 13.3125 102.422C19.1875 105.24 32.2969 109.875 54.9375 109.875Z" fill="url(#paint0_linear_780_378)"/>
</g>
<mask id="mask1_780_378" style="mask-type:luminance" maskUnits="userSpaceOnUse" x="58" y="79" width="3" height="10">
<path d="M58.302 79.6095H60.9687V88.771H58.302V79.6095Z" fill="white"/>
</mask>
<g mask="url(#mask1_780_378)">
<path d="M59.3906 80.5313C59.8177 80.6147 60.2552 80.6824 60.6927 80.7501V89.0574C60.2552 89.0313 59.8281 89.0053 59.3906 88.9636C59.1042 88.9376 58.8021 88.9063 58.5156 88.8647V80.3542C58.8021 80.422 59.0938 80.474 59.3906 80.5313Z" fill="#F9F8F9"/>
</g>
<path d="M60.6771 43.3594V79.125C60.4167 79.0677 60.1563 79.0156 59.9115 78.9583C59.7344 78.9167 59.5573 78.875 59.3906 78.8385C59.2708 78.8073 59.1615 78.7813 59.0521 78.7552C58.875 78.7135 58.6927 78.6563 58.5312 78.6198V43.3594H60.6771Z" fill="#F9F8F9"/>
<mask id="mask2_780_378" style="mask-type:luminance" maskUnits="userSpaceOnUse" x="62" y="80" width="9" height="9">
<path d="M62.302 80.9427H70.302V88.7709H62.302V80.9427Z" fill="white"/>
</mask>
<g mask="url(#mask2_780_378)">
<path d="M69.0676 85C69.0676 85.698 68.901 86.3959 68.5624 87.0105C68.026 87.9792 67.0468 88.7188 65.6093 88.8959C64.5833 89.0157 63.5468 89.0834 62.4791 89.099C62.453 89.099 62.4374 89.099 62.4114 89.099V80.9427C63.1926 81.0105 63.9687 81.0365 64.7603 81.0365C64.8697 81.0365 64.9791 81.0365 65.1041 81.0365C67.703 81.0105 69.0676 83.0052 69.0676 85Z" fill="#F9F8F9"/>
</g>
<path d="M69.9426 29.9011V31.3647H69.0676V80.4897C68.427 79.9584 67.5624 79.6147 66.4843 79.6303C66.3749 79.6303 66.2655 79.6303 66.1405 79.6303C65.3489 79.6303 64.5728 79.6043 63.7916 79.5313C63.328 79.4949 62.8645 79.4532 62.3958 79.3855V42.5001C62.3958 42.0209 61.9999 41.6251 61.526 41.6251H59.3645V31.4011H58.4895V29.9011H69.9426Z" fill="#F9F8F9"/>
<mask id="mask3_780_378" style="mask-type:luminance" maskUnits="userSpaceOnUse" x="56" y="28" width="16" height="61">
<path d="M56.9688 28.9427H71.6354V88.7709H56.9688V28.9427Z" fill="white"/>
</mask>
<g mask="url(#mask3_780_378)">
<path d="M69.9427 29.0365H58.5156C58.0365 29.0365 57.6406 29.4375 57.6406 29.9115V31.4167H59.3906V30.7865H69.0833V31.375H70.8281V29.9011C70.8177 29.4219 70.4219 29.0365 69.9427 29.0365ZM57.6406 43.3594V78.3594C57.9271 78.4428 58.2188 78.5365 58.5156 78.6198C58.6927 78.6719 58.8594 78.7136 59.0365 78.7553C59.1458 78.7813 59.2708 78.8073 59.3802 78.8386V43.3594H57.6406ZM58.5156 80.3542C58.2292 80.2865 57.9271 80.2188 57.6406 80.1459V88.7448C57.9271 88.7865 58.2188 88.8282 58.5156 88.8646C58.8021 88.9063 59.0938 88.9375 59.3906 88.9636V80.5313C59.0938 80.474 58.8021 80.4219 58.5156 80.3542Z" fill="#F9F8F9"/>
</g>
<mask id="mask4_780_378" style="mask-type:luminance" maskUnits="userSpaceOnUse" x="52" y="78" width="9" height="11">
<path d="M52.9688 78.2761H60.9688V88.7709H52.9688V78.2761Z" fill="white"/>
</mask>
<g mask="url(#mask4_780_378)">
<path d="M59.3905 80.5313C59.8176 80.6146 60.2551 80.6823 60.6926 80.75V89.0573C60.2551 89.0313 59.828 89.0052 59.3905 88.9636C59.1041 88.9375 58.802 88.9063 58.5155 88.8646C58.2291 88.8282 57.927 88.7865 57.6405 88.7448C56.4114 88.5521 55.1978 88.2813 54.0208 87.9219V78.9584C55.1978 79.4375 56.401 79.8334 57.6405 80.1459C57.927 80.2188 58.2187 80.2969 58.5155 80.3542C58.802 80.4219 59.0937 80.474 59.3905 80.5313Z" fill="#F9F8F9"/>
</g>
<path d="M60.6771 43.3594V79.125C60.4167 79.0677 60.1563 79.0156 59.9115 78.9583C59.7344 78.9167 59.5573 78.875 59.3906 78.8385C59.2708 78.8073 59.1615 78.7813 59.0521 78.7552C58.875 78.7135 58.6927 78.6563 58.5313 78.6198C58.2448 78.5365 57.9427 78.4531 57.6563 78.3594C56.9063 78.125 56.151 77.8542 55.4271 77.5677C54.9635 77.375 54.5 77.1719 54.0365 76.9635V53.8021C54.0365 53.3229 53.651 52.9271 53.1615 52.9271H51V43.3594H60.6771Z" fill="#F9F8F9"/>
<path d="M50.9895 77.5262C51.4114 77.7553 51.8489 77.9741 52.2864 78.1928V87.3491C51.8489 87.1876 51.427 87.021 50.9895 86.8439C50.703 86.7241 50.401 86.5991 50.1145 86.4637V77.0314C50.4114 77.198 50.703 77.3595 50.9895 77.5262Z" fill="#F9F8F9"/>
<path d="M52.2865 54.6771V76.0782C52.026 75.9375 51.7656 75.7917 51.5208 75.6407C51.3438 75.5313 51.1667 75.4323 51 75.323C50.8802 75.2552 50.7708 75.1719 50.6615 75.1042C50.4844 74.9948 50.3021 74.875 50.1406 74.7657V54.6771H52.2865Z" fill="#F9F8F9"/>
<path d="M49.25 54.6771V74.1511C49.5365 74.3542 49.8281 74.5573 50.125 74.7657C50.3021 74.8855 50.4688 74.9948 50.6458 75.1042C50.7552 75.1719 50.8802 75.2552 50.9896 75.323V54.6771H49.25ZM50.125 77.0313C49.8385 76.8542 49.5365 76.6771 49.25 76.5V86.0365C49.5365 86.1875 49.8281 86.323 50.125 86.4636C50.4115 86.599 50.7031 86.724 51 86.8438V77.5261C50.7031 77.3594 50.4115 77.198 50.125 77.0313Z" fill="#F9F8F9"/>
<path d="M50.9895 77.5262C51.4114 77.7553 51.8489 77.9741 52.2864 78.1928V87.3491C51.8489 87.1876 51.427 87.021 50.9895 86.8439C50.703 86.7241 50.401 86.5991 50.1145 86.4637C49.828 86.323 49.526 86.1876 49.2395 86.0366C46.8072 84.8074 44.5624 83.2501 42.5833 81.4064V70.5939C44.4843 72.8907 46.7239 74.8855 49.2395 76.5001C49.526 76.6772 49.8124 76.8699 50.1145 77.0314C50.4114 77.198 50.703 77.3595 50.9895 77.5262Z" fill="#F9F8F9"/>
<path d="M52.2865 54.6771V76.0782C52.026 75.9375 51.7656 75.7917 51.5208 75.6407C51.3438 75.5313 51.1667 75.4323 51 75.323C50.8802 75.2552 50.7708 75.1719 50.6615 75.1042C50.4844 74.9948 50.3021 74.875 50.1406 74.7657C49.8385 74.5573 49.5521 74.3698 49.2656 74.1511C47.3125 72.7292 45.5469 71.0625 44.0052 69.1875C43.5104 68.599 43.0469 67.9844 42.6094 67.3594V54.6771H52.2865Z" fill="#F9F8F9"/>
<mask id="mask5_780_378" style="mask-type:luminance" maskUnits="userSpaceOnUse" x="51" y="20" width="26" height="12">
<path d="M51.6355 20.7709H76.3803V31.6094H51.6355V20.7709Z" fill="white"/>
</mask>
<g mask="url(#mask5_780_378)">
<path d="M52.0417 31.4323L57.6407 31.4011H59.3907L69.0678 31.3646H70.8178L76.4897 31.349L64.2292 20.7709L52.0417 31.4323Z" fill="#F9F8F9"/>
</g>
<mask id="mask6_780_378" style="mask-type:luminance" maskUnits="userSpaceOnUse" x="33" y="46" width="38" height="43">
<path d="M33.3801 46.2761H70.302V88.7709H33.3801V46.2761Z" fill="white"/>
</mask>
<g mask="url(#mask6_780_378)">
<path d="M69.0676 85.0001C69.0676 85.698 68.9009 86.3959 68.5624 87.0105C68.0259 87.9792 67.0468 88.7188 65.6093 88.8959C64.5832 89.0157 63.5468 89.0834 62.4791 89.099C62.453 89.099 62.4374 89.099 62.4113 89.099C61.8228 89.099 61.2499 89.099 60.677 89.0574C60.2395 89.0313 59.8176 89.0053 59.3801 88.9636C59.0936 88.9376 58.7916 88.9063 58.5051 88.8647C58.2186 88.8282 57.9166 88.7865 57.6301 88.7449C56.4009 88.5522 55.1822 88.2813 54.0051 87.922C53.4218 87.7449 52.8436 87.5574 52.2707 87.349C51.8332 87.1876 51.4113 87.0209 50.9738 86.8438C50.6874 86.724 50.3853 86.599 50.0988 86.4636C49.8124 86.323 49.5103 86.1876 49.2238 86.0365C46.7916 84.8074 44.552 83.2501 42.5676 81.4063C37.0051 76.198 33.4686 68.7917 33.4113 60.5678C33.3853 55.8803 34.4791 51.4532 36.4322 47.5261C36.2707 48.4845 36.1613 49.4428 36.0936 50.4272C36.052 51.0417 36.0363 51.6667 36.0363 52.3126C36.0363 59.2553 38.4947 65.6199 42.5988 70.5834C44.4947 72.8803 46.7395 74.8751 49.2499 76.4845C49.5363 76.6615 49.828 76.8542 50.1249 77.0209C50.4113 77.1824 50.703 77.3595 50.9999 77.5105C51.427 77.7449 51.8645 77.9636 52.2968 78.1824C52.8749 78.4532 53.4478 78.7136 54.0363 78.948C55.2082 79.422 56.4113 79.823 57.6561 80.1355C57.9426 80.2032 58.2291 80.2865 58.5311 80.3386C58.8176 80.4063 59.1041 80.4636 59.4061 80.5157C59.828 80.599 60.2655 80.6667 60.703 80.7345C61.2759 80.8178 61.8541 80.8855 62.4374 80.9272C63.2186 80.9949 63.9947 81.0209 64.7916 81.0209C64.9009 81.0209 65.0103 81.0209 65.1301 81.0209C67.703 81.0105 69.0676 83.0053 69.0676 85.0001Z" fill="#F9F8F9"/>
</g>
<defs>
<linearGradient id="paint0_linear_780_378" x1="16" y1="14" x2="60.5" y2="107" gradientUnits="userSpaceOnUse">
<stop stop-color="#44A08D"/>
<stop offset="1" stop-color="#193A33"/>
</linearGradient>
</defs>
</svg>
