<svg width="299" height="272" viewBox="0 0 299 272" fill="none" xmlns="http://www.w3.org/2000/svg">
<mask id="path-1-inside-1_7157_39033" fill="white">
<path fill-rule="evenodd" clip-rule="evenodd" d="M91.0348 2.64054C67.1034 -1.57921 44.2825 14.4002 40.0627 38.3316L17.1411 168.326C12.9214 192.258 28.9008 215.078 52.8322 219.298L67.756 221.93C68.4892 222.242 69.2349 222.537 69.9928 222.813L194.032 267.959C216.867 276.27 242.116 264.497 250.428 241.662L295.574 117.622C303.885 94.7871 292.112 69.5381 269.277 61.2268L255.536 56.2255C250.894 40.8272 237.949 28.5455 221.029 25.5621L91.0348 2.64054Z"/>
</mask>
<path fill-rule="evenodd" clip-rule="evenodd" d="M91.0348 2.64054C67.1034 -1.57921 44.2825 14.4002 40.0627 38.3316L17.1411 168.326C12.9214 192.258 28.9008 215.078 52.8322 219.298L67.756 221.93C68.4892 222.242 69.2349 222.537 69.9928 222.813L194.032 267.959C216.867 276.27 242.116 264.497 250.428 241.662L295.574 117.622C303.885 94.7871 292.112 69.5381 269.277 61.2268L255.536 56.2255C250.894 40.8272 237.949 28.5455 221.029 25.5621L91.0348 2.64054Z" fill="#0A0A0B"/>
<path d="M40.0627 38.3316L38.0931 37.9843L38.0931 37.9843L40.0627 38.3316ZM91.0348 2.64054L90.6875 4.61015L91.0348 2.64054ZM17.1411 168.326L15.1715 167.979L15.1715 167.979L17.1411 168.326ZM52.8322 219.298L53.1795 217.329L53.1795 217.329L52.8322 219.298ZM67.756 221.93L68.5401 220.09L68.3291 220L68.1032 219.96L67.756 221.93ZM69.9928 222.813L70.6768 220.933L70.6768 220.933L69.9928 222.813ZM194.032 267.959L193.348 269.839L193.348 269.839L194.032 267.959ZM250.428 241.662L248.548 240.978L248.548 240.978L250.428 241.662ZM295.574 117.622L293.695 116.938L293.695 116.938L295.574 117.622ZM269.277 61.2268L268.593 63.1062L268.593 63.1062L269.277 61.2268ZM255.536 56.2255L253.621 56.8027L253.91 57.7622L254.852 58.1049L255.536 56.2255ZM221.029 25.5621L221.377 23.5925L221.377 23.5925L221.029 25.5621ZM42.0323 38.6789C46.0603 15.8353 67.8439 0.582217 90.6875 4.61015L91.3821 0.670922C66.3629 -3.74063 42.5046 12.9651 38.0931 37.9843L42.0323 38.6789ZM19.1108 168.673L42.0323 38.6789L38.0931 37.9843L15.1715 167.979L19.1108 168.673ZM53.1795 217.329C30.3359 213.301 15.0828 191.517 19.1108 168.673L15.1715 167.979C10.76 192.998 27.4657 216.856 52.4849 221.268L53.1795 217.329ZM68.1032 219.96L53.1795 217.329L52.4849 221.268L67.4087 223.899L68.1032 219.96ZM70.6768 220.933C69.9526 220.67 69.2403 220.388 68.5401 220.09L66.9718 223.77C67.738 224.096 68.5171 224.404 69.3087 224.692L70.6768 220.933ZM194.716 266.08L70.6768 220.933L69.3087 224.692L193.348 269.839L194.716 266.08ZM248.548 240.978C240.615 262.775 216.513 274.013 194.716 266.08L193.348 269.839C217.221 278.528 243.618 266.219 252.307 242.346L248.548 240.978ZM293.695 116.938L248.548 240.978L252.307 242.346L297.454 118.306L293.695 116.938ZM268.593 63.1062C290.39 71.0397 301.628 95.1411 293.695 116.938L297.454 118.306C306.143 94.4332 293.834 68.0365 269.961 59.3474L268.593 63.1062ZM254.852 58.1049L268.593 63.1062L269.961 59.3474L256.22 54.3461L254.852 58.1049ZM220.682 27.5317C236.83 30.379 249.189 42.0991 253.621 56.8027L257.451 55.6483C252.6 39.5553 239.068 26.712 221.377 23.5925L220.682 27.5317ZM90.6875 4.61015L220.682 27.5317L221.377 23.5925L91.3821 0.670922L90.6875 4.61015Z" fill="url(#paint0_linear_7157_39033)" fill-opacity="0.2" mask="url(#path-1-inside-1_7157_39033)"/>
<rect x="48.5143" y="-3.84154" width="218" height="218" rx="43" transform="rotate(10 48.5143 -3.84154)" fill="#17181E"/>
<rect x="48.5143" y="-3.84154" width="218" height="218" rx="43" transform="rotate(10 48.5143 -3.84154)" fill="url(#paint1_radial_7157_39033)" fill-opacity="0.3"/>
<rect x="48.5143" y="-3.84154" width="218" height="218" rx="43" transform="rotate(10 48.5143 -3.84154)" fill="url(#paint2_radial_7157_39033)" fill-opacity="0.1"/>
<rect x="48.5143" y="-3.84154" width="218" height="218" rx="43" transform="rotate(10 48.5143 -3.84154)" fill="url(#paint3_radial_7157_39033)" fill-opacity="0.1"/>
<rect x="48.5143" y="-3.84154" width="218" height="218" rx="43" transform="rotate(10 48.5143 -3.84154)" stroke="url(#paint4_linear_7157_39033)" stroke-width="2"/>
<rect x="1" y="1" width="218" height="218" rx="43" fill="#17181E"/>
<rect x="1" y="1" width="218" height="218" rx="43" fill="url(#paint5_radial_7157_39033)" fill-opacity="0.3"/>
<rect x="1" y="1" width="218" height="218" rx="43" fill="url(#paint6_radial_7157_39033)" fill-opacity="0.3"/>
<rect x="1" y="1" width="218" height="218" rx="43" fill="url(#paint7_radial_7157_39033)" fill-opacity="0.3"/>
<path d="M27.5 110L46.1289 91.3711L64.7582 110L46.1289 128.629L27.5 110Z" fill="#F0B90B"/>
<path d="M59.4353 78.0646L110 27.5L160.565 78.0646L141.935 96.6935L110 64.7582L78.0646 96.6935L59.4353 78.0646Z" fill="#F0B90B"/>
<path d="M91.3711 110L110 91.3711L128.629 110L110 128.629L91.3711 110Z" fill="#F0B90B"/>
<path d="M78.0646 123.306L59.4353 141.935L110 192.5L160.565 141.935L141.935 123.306L110 155.242L78.0646 123.306Z" fill="#F0B90B"/>
<path d="M155.242 110L173.871 91.3711L192.5 110L173.871 128.629L155.242 110Z" fill="#F0B90B"/>
<rect x="1" y="1" width="218" height="218" rx="43" stroke="url(#paint8_linear_7157_39033)" stroke-width="2"/>
<defs>
<linearGradient id="paint0_linear_7157_39033" x1="16.4653" y1="-4.75178" x2="273.304" y2="276.753" gradientUnits="userSpaceOnUse">
<stop stop-color="#6C5210"/>
<stop offset="0.5" stop-color="#F0B90B" stop-opacity="0"/>
<stop offset="1" stop-color="#6C5210"/>
</linearGradient>
<radialGradient id="paint1_radial_7157_39033" cx="0" cy="0" r="1" gradientUnits="userSpaceOnUse" gradientTransform="translate(38.5365 -5.00001) rotate(38.0168) scale(178.602 196.115)">
<stop offset="0.0206068" stop-color="white" stop-opacity="0.3"/>
<stop offset="0.432292" stop-color="white" stop-opacity="0"/>
</radialGradient>
<radialGradient id="paint2_radial_7157_39033" cx="0" cy="0" r="1" gradientUnits="userSpaceOnUse" gradientTransform="translate(297.495 73.8333) rotate(179.405) scale(132.465 145.454)">
<stop offset="0.0206068" stop-color="white" stop-opacity="0.4"/>
<stop offset="0.451086" stop-color="white" stop-opacity="0"/>
</radialGradient>
<radialGradient id="paint3_radial_7157_39033" cx="0" cy="0" r="1" gradientUnits="userSpaceOnUse" gradientTransform="translate(132.495 244.333) rotate(-90) scale(152.167 223.222)">
<stop offset="0.0206068" stop-color="white" stop-opacity="0.3"/>
<stop offset="0.451086" stop-color="white" stop-opacity="0"/>
</radialGradient>
<linearGradient id="paint4_linear_7157_39033" x1="47.7031" y1="-10.5" x2="258.703" y2="210" gradientUnits="userSpaceOnUse">
<stop stop-color="#6C5210"/>
<stop offset="0.5" stop-color="#20222F" stop-opacity="0"/>
<stop offset="1" stop-color="#6C5210"/>
</linearGradient>
<radialGradient id="paint5_radial_7157_39033" cx="0" cy="0" r="1" gradientUnits="userSpaceOnUse" gradientTransform="translate(-9.16667 -9.19042e-06) rotate(38.0168) scale(178.602 196.115)">
<stop offset="0.0206068" stop-color="white" stop-opacity="0.3"/>
<stop offset="0.432292" stop-color="white" stop-opacity="0"/>
</radialGradient>
<radialGradient id="paint6_radial_7157_39033" cx="0" cy="0" r="1" gradientUnits="userSpaceOnUse" gradientTransform="translate(249.792 78.8333) rotate(179.405) scale(132.465 145.454)">
<stop offset="0.0206068" stop-color="white" stop-opacity="0.4"/>
<stop offset="0.451086" stop-color="white" stop-opacity="0"/>
</radialGradient>
<radialGradient id="paint7_radial_7157_39033" cx="0" cy="0" r="1" gradientUnits="userSpaceOnUse" gradientTransform="translate(84.7917 249.333) rotate(-90) scale(152.167 223.222)">
<stop offset="0.0206068" stop-color="white" stop-opacity="0.3"/>
<stop offset="0.451086" stop-color="white" stop-opacity="0"/>
</radialGradient>
<linearGradient id="paint8_linear_7157_39033" x1="1.07139e-06" y1="-5.5" x2="211" y2="215" gradientUnits="userSpaceOnUse">
<stop stop-color="#BF911B"/>
<stop offset="0.5" stop-color="#20222F" stop-opacity="0"/>
<stop offset="1" stop-color="#BF911B"/>
</linearGradient>
</defs>
</svg>
