<svg width="299" height="272" viewBox="0 0 299 272" fill="none" xmlns="http://www.w3.org/2000/svg">
<mask id="path-1-inside-1_6932_36151" fill="white">
<path fill-rule="evenodd" clip-rule="evenodd" d="M91.0346 2.64066C67.1033 -1.57908 44.2823 14.4003 40.0626 38.3317L17.141 168.326C12.9213 192.258 28.9007 215.079 52.832 219.298L67.7558 221.93C68.489 222.242 69.2347 222.537 69.9926 222.813L194.032 267.959C216.867 276.271 242.116 264.497 250.427 241.662L295.574 117.622C303.885 94.7873 292.112 69.5382 269.277 61.2269L255.536 56.2257C250.894 40.8273 237.949 28.5456 221.029 25.5622L91.0346 2.64066Z"/>
</mask>
<path fill-rule="evenodd" clip-rule="evenodd" d="M91.0346 2.64066C67.1033 -1.57908 44.2823 14.4003 40.0626 38.3317L17.141 168.326C12.9213 192.258 28.9007 215.079 52.832 219.298L67.7558 221.93C68.489 222.242 69.2347 222.537 69.9926 222.813L194.032 267.959C216.867 276.271 242.116 264.497 250.427 241.662L295.574 117.622C303.885 94.7873 292.112 69.5382 269.277 61.2269L255.536 56.2257C250.894 40.8273 237.949 28.5456 221.029 25.5622L91.0346 2.64066Z" fill="#0063FA" fill-opacity="0.4"/>
<path d="M40.0626 38.3317L38.093 37.9844L38.093 37.9844L40.0626 38.3317ZM91.0346 2.64066L90.6873 4.61028L91.0346 2.64066ZM17.141 168.326L15.1714 167.979L15.1714 167.979L17.141 168.326ZM52.832 219.298L53.1793 217.329L53.1793 217.329L52.832 219.298ZM67.7558 221.93L68.5399 220.09L68.329 220L68.1031 219.96L67.7558 221.93ZM69.9926 222.813L70.6767 220.933L70.6767 220.933L69.9926 222.813ZM194.032 267.959L193.348 269.839L193.348 269.839L194.032 267.959ZM250.427 241.662L248.548 240.978L248.548 240.978L250.427 241.662ZM295.574 117.622L293.695 116.938L293.695 116.938L295.574 117.622ZM269.277 61.2269L268.592 63.1063L268.592 63.1063L269.277 61.2269ZM255.536 56.2257L253.621 56.8029L253.91 57.7623L254.852 58.105L255.536 56.2257ZM221.029 25.5622L221.377 23.5926L221.377 23.5926L221.029 25.5622ZM42.0322 38.679C46.0601 15.8354 67.8438 0.582339 90.6873 4.61028L91.3819 0.671044C66.3628 -3.7405 42.5045 12.9652 38.093 37.9844L42.0322 38.679ZM19.1106 168.674L42.0322 38.679L38.093 37.9844L15.1714 167.979L19.1106 168.674ZM53.1793 217.329C30.3358 213.301 15.0827 191.517 19.1106 168.674L15.1714 167.979C10.7599 192.998 27.4656 216.856 52.4847 221.268L53.1793 217.329ZM68.1031 219.96L53.1793 217.329L52.4847 221.268L67.4085 223.899L68.1031 219.96ZM70.6767 220.933C69.9525 220.67 69.2401 220.388 68.5399 220.09L66.9717 223.77C67.7379 224.096 68.517 224.404 69.3086 224.692L70.6767 220.933ZM194.716 266.08L70.6767 220.933L69.3086 224.692L193.348 269.839L194.716 266.08ZM248.548 240.978C240.615 262.775 216.513 274.013 194.716 266.08L193.348 269.839C217.221 278.528 243.618 266.219 252.307 242.346L248.548 240.978ZM293.695 116.938L248.548 240.978L252.307 242.346L297.453 118.306L293.695 116.938ZM268.592 63.1063C290.39 71.0398 301.628 95.1412 293.695 116.938L297.453 118.306C306.143 94.4333 293.834 68.0366 269.961 59.3475L268.592 63.1063ZM254.852 58.105L268.592 63.1063L269.961 59.3475L256.22 54.3463L254.852 58.105ZM220.682 27.5318C236.83 30.3792 249.189 42.0992 253.621 56.8029L257.45 55.6484C252.6 39.5555 239.068 26.7121 221.377 23.5926L220.682 27.5318ZM90.6873 4.61028L220.682 27.5318L221.377 23.5926L91.3819 0.671044L90.6873 4.61028Z" fill="url(#paint0_linear_6932_36151)" mask="url(#path-1-inside-1_6932_36151)"/>
<rect x="48.5143" y="-3.84154" width="218" height="218" rx="43" transform="rotate(10 48.5143 -3.84154)" fill="#0063FA" fill-opacity="0.5" stroke="url(#paint1_linear_6932_36151)" stroke-width="2"/>
<rect x="1" y="1" width="218" height="218" rx="43" fill="#0063FA"/>
<path fill-rule="evenodd" clip-rule="evenodd" d="M60.2702 35.3947C91.0824 36.2266 149.318 48.8595 177.357 64.9128C205.396 80.9661 202.931 100.532 188.018 124.75C173.105 148.968 145.528 177.408 119.46 186.375C93.3931 195.341 68.805 184.495 52.9061 159.568C37.0069 134.641 29.7968 95.6016 27.9173 70.6131C26.0377 45.6243 29.4579 34.6244 60.2702 35.3947Z" fill="#F0F3FA"/>
<path d="M116.842 134.857C120.518 134.862 124.184 134.479 127.78 133.717C130.867 133.051 133.844 131.951 136.623 130.451C139.173 129.074 141.491 127.307 143.494 125.213C145.49 123.058 147.151 120.618 148.424 117.971C149.846 115.036 150.881 111.929 151.505 108.728C152.197 105.072 152.528 101.356 152.491 97.6355C152.595 92.3304 151.836 87.0437 150.242 81.9829C148.949 77.8406 146.665 74.0759 143.589 71.0155C140.512 67.9548 136.736 65.6911 132.586 64.4199C127.488 62.8555 122.173 62.1169 116.842 62.2324H60.4858L54.1078 79.6721H116.564C119.07 79.6077 121.57 79.9617 123.959 80.7195C126.041 81.3952 127.932 82.5569 129.474 84.1091C131.015 85.7406 132.145 87.7159 132.772 89.8707C133.514 92.4117 133.868 95.0505 133.819 97.6972C133.862 100.435 133.509 103.164 132.772 105.801C132.119 108.052 131.019 110.148 129.536 111.963C128.071 113.735 126.185 115.112 124.052 115.969C121.659 116.869 119.121 117.319 116.564 117.294H98.0768V88.546H79.8666V165.022H98.0461V134.826H116.842V134.857Z" fill="#0063FA"/>
<rect x="1" y="1" width="218" height="218" rx="43" stroke="url(#paint2_linear_6932_36151)" stroke-width="2"/>
<defs>
<linearGradient id="paint0_linear_6932_36151" x1="16.4652" y1="-4.75166" x2="273.304" y2="276.753" gradientUnits="userSpaceOnUse">
<stop stop-color="#708CFF"/>
<stop offset="0.5" stop-color="#0063FA" stop-opacity="0"/>
<stop offset="1" stop-color="#708CFF"/>
</linearGradient>
<linearGradient id="paint1_linear_6932_36151" x1="47.7031" y1="-10.5" x2="258.703" y2="210" gradientUnits="userSpaceOnUse">
<stop stop-color="#708CFF"/>
<stop offset="0.5" stop-color="#0063FA" stop-opacity="0"/>
<stop offset="1" stop-color="#708CFF"/>
</linearGradient>
<linearGradient id="paint2_linear_6932_36151" x1="1.07139e-06" y1="-5.5" x2="211" y2="215" gradientUnits="userSpaceOnUse">
<stop stop-color="#708CFF"/>
<stop offset="0.5" stop-color="#0063FA" stop-opacity="0"/>
<stop offset="1" stop-color="#708CFF"/>
</linearGradient>
</defs>
</svg>
