<svg width="299" height="272" viewBox="0 0 299 272" fill="none" xmlns="http://www.w3.org/2000/svg">
<mask id="path-1-inside-1_6932_36209" fill="white">
<path fill-rule="evenodd" clip-rule="evenodd" d="M91.0347 2.64054C67.1033 -1.5792 44.2823 14.4002 40.0626 38.3316L17.141 168.326C12.9213 192.258 28.9007 215.078 52.8321 219.298L67.7558 221.93C68.489 222.242 69.2348 222.537 69.9927 222.813L194.032 267.959C216.867 276.27 242.116 264.497 250.427 241.662L295.574 117.622C303.885 94.7871 292.112 69.5381 269.277 61.2268L255.536 56.2255C250.894 40.8272 237.949 28.5455 221.029 25.5621L91.0347 2.64054Z"/>
</mask>
<path fill-rule="evenodd" clip-rule="evenodd" d="M91.0347 2.64054C67.1033 -1.5792 44.2823 14.4002 40.0626 38.3316L17.141 168.326C12.9213 192.258 28.9007 215.078 52.8321 219.298L67.7558 221.93C68.489 222.242 69.2348 222.537 69.9927 222.813L194.032 267.959C216.867 276.27 242.116 264.497 250.427 241.662L295.574 117.622C303.885 94.7871 292.112 69.5381 269.277 61.2268L255.536 56.2255C250.894 40.8272 237.949 28.5455 221.029 25.5621L91.0347 2.64054Z" fill="#83C461" fill-opacity="0.4"/>
<path d="M40.0626 38.3316L38.093 37.9843L38.093 37.9843L40.0626 38.3316ZM91.0347 2.64054L90.6874 4.61015L91.0347 2.64054ZM17.141 168.326L15.1714 167.979L15.1714 167.979L17.141 168.326ZM52.8321 219.298L53.1794 217.329L53.1794 217.329L52.8321 219.298ZM67.7558 221.93L68.54 220.09L68.329 220L68.1031 219.96L67.7558 221.93ZM69.9927 222.813L70.6767 220.933L70.6767 220.933L69.9927 222.813ZM194.032 267.959L193.348 269.839L193.348 269.839L194.032 267.959ZM250.427 241.662L248.548 240.978L248.548 240.978L250.427 241.662ZM295.574 117.622L293.695 116.938L293.695 116.938L295.574 117.622ZM269.277 61.2268L268.592 63.1062L268.592 63.1062L269.277 61.2268ZM255.536 56.2255L253.621 56.8027L253.91 57.7622L254.852 58.1049L255.536 56.2255ZM221.029 25.5621L221.377 23.5925L221.377 23.5925L221.029 25.5621ZM42.0322 38.6789C46.0602 15.8353 67.8438 0.582217 90.6874 4.61015L91.382 0.670922C66.3628 -3.74063 42.5045 12.9651 38.093 37.9843L42.0322 38.6789ZM19.1107 168.673L42.0322 38.6789L38.093 37.9843L15.1714 167.979L19.1107 168.673ZM53.1794 217.329C30.3358 213.301 15.0827 191.517 19.1107 168.673L15.1714 167.979C10.7599 192.998 27.4656 216.856 52.4848 221.268L53.1794 217.329ZM68.1031 219.96L53.1794 217.329L52.4848 221.268L67.4085 223.899L68.1031 219.96ZM70.6767 220.933C69.9525 220.67 69.2402 220.388 68.54 220.09L66.9717 223.77C67.7379 224.096 68.517 224.404 69.3086 224.692L70.6767 220.933ZM194.716 266.08L70.6767 220.933L69.3086 224.692L193.348 269.839L194.716 266.08ZM248.548 240.978C240.615 262.775 216.513 274.013 194.716 266.08L193.348 269.839C217.221 278.528 243.618 266.219 252.307 242.346L248.548 240.978ZM293.695 116.938L248.548 240.978L252.307 242.346L297.453 118.306L293.695 116.938ZM268.592 63.1062C290.39 71.0397 301.628 95.1411 293.695 116.938L297.453 118.306C306.143 94.4332 293.834 68.0365 269.961 59.3474L268.592 63.1062ZM254.852 58.1049L268.592 63.1062L269.961 59.3474L256.22 54.3461L254.852 58.1049ZM220.682 27.5317C236.83 30.379 249.189 42.0991 253.621 56.8027L257.451 55.6483C252.6 39.5553 239.068 26.712 221.377 23.5925L220.682 27.5317ZM90.6874 4.61015L220.682 27.5317L221.377 23.5925L91.382 0.670922L90.6874 4.61015Z" fill="url(#paint0_linear_6932_36209)" mask="url(#path-1-inside-1_6932_36209)"/>
<rect x="48.5143" y="-3.84154" width="218" height="218" rx="43" transform="rotate(10 48.5143 -3.84154)" fill="#83C461" fill-opacity="0.5" stroke="url(#paint1_linear_6932_36209)" stroke-width="2"/>
<rect x="1" y="1" width="218" height="218" rx="43" fill="#84C561"/>
<path fill-rule="evenodd" clip-rule="evenodd" d="M110 53.0357C141.429 53.0357 166.964 78.5714 166.964 110C166.964 141.429 141.429 166.964 110 166.964C78.5714 166.964 53.0357 141.429 53.0357 110C53.0357 78.5714 78.5714 53.0357 110 53.0357Z" fill="white"/>
<rect x="1" y="1" width="218" height="218" rx="43" stroke="url(#paint2_linear_6932_36209)" stroke-width="2"/>
<defs>
<linearGradient id="paint0_linear_6932_36209" x1="16.4652" y1="-4.75178" x2="273.304" y2="276.753" gradientUnits="userSpaceOnUse">
<stop stop-color="#BDFF9A"/>
<stop offset="0.5" stop-color="#84C561" stop-opacity="0"/>
<stop offset="1" stop-color="#BDFF9A"/>
</linearGradient>
<linearGradient id="paint1_linear_6932_36209" x1="47.7031" y1="-10.5" x2="258.703" y2="210" gradientUnits="userSpaceOnUse">
<stop stop-color="#BDFF9A"/>
<stop offset="0.5" stop-color="#84C561" stop-opacity="0"/>
<stop offset="1" stop-color="#BDFF9A"/>
</linearGradient>
<linearGradient id="paint2_linear_6932_36209" x1="1.07139e-06" y1="-5.5" x2="211" y2="215" gradientUnits="userSpaceOnUse">
<stop stop-color="#BDFF9A"/>
<stop offset="0.5" stop-color="#84C561" stop-opacity="0"/>
<stop offset="1" stop-color="#BDFF9A"/>
</linearGradient>
</defs>
</svg>
